<svg width="173" height="112" viewBox="0 0 173 112" fill="none" xmlns="http://www.w3.org/2000/svg">
<g clip-path="url(#clip0_2138_1528)">
<rect width="173" height="112" fill="white"/>
<path fill-rule="evenodd" clip-rule="evenodd" d="M149.282 25.6719L150.519 25.6719L150.519 29.3409L149.282 29.3409L149.282 25.6719Z" fill="#0E153A" fill-opacity="0.1"/>
<path fill-rule="evenodd" clip-rule="evenodd" d="M180.767 27.5147L171.821 18.5703L162.877 27.5147L171.821 36.4603L180.767 27.5147Z" fill="#0E153A" fill-opacity="0.1"/>
<path fill-rule="evenodd" clip-rule="evenodd" d="M180.767 27.5147L171.821 18.5703L162.877 27.5147L171.821 36.4603L180.767 27.5147Z" fill="#0E153A" fill-opacity="0.1"/>
<path fill-rule="evenodd" clip-rule="evenodd" d="M171.205 8.01172L172.441 8.01172L172.441 11.6808L171.205 11.6808L171.205 8.01172Z" fill="#0E153A" fill-opacity="0.1"/>
<path fill-rule="evenodd" clip-rule="evenodd" d="M171.205 3.15625L172.441 3.15625L172.441 6.82531L171.205 6.82531L171.205 3.15625Z" fill="#0E153A" fill-opacity="0.1"/>
<path fill-rule="evenodd" clip-rule="evenodd" d="M152.652 28.1094L151.416 28.1094L151.416 31.7797L152.652 31.7797L152.652 28.1094Z" fill="#0E153A" fill-opacity="0.1"/>
<path fill-rule="evenodd" clip-rule="evenodd" d="M152.652 23.2539L151.416 23.2539L151.416 26.923L152.652 26.923L152.652 23.2539Z" fill="#0E153A" fill-opacity="0.1"/>
<path fill-rule="evenodd" clip-rule="evenodd" d="M159.245 21.4023C158.834 21.4023 158.421 21.4023 158.009 21.4023C158.009 22.6254 158.009 23.8484 158.009 25.0714C158.421 25.0714 158.833 25.0714 159.245 25.0714C159.245 23.8484 159.245 22.6254 159.245 21.4023Z" fill="#0E153A" fill-opacity="0.1"/>
<path fill-rule="evenodd" clip-rule="evenodd" d="M159.245 16.5469C158.834 16.5469 158.421 16.5469 158.009 16.5469C158.009 17.7699 158.009 18.9929 158.009 20.2159C158.421 20.2159 158.833 20.2159 159.245 20.2159C159.245 18.9929 159.245 17.7699 159.245 16.5469Z" fill="#0E153A" fill-opacity="0.1"/>
<path fill-rule="evenodd" clip-rule="evenodd" d="M161.444 19.1758C161.033 19.1758 160.62 19.1758 160.208 19.1758C160.208 20.3988 160.208 21.6218 160.208 22.8461C160.619 22.8461 161.032 22.8461 161.444 22.8461C161.444 21.623 161.444 20.3988 161.444 19.1758Z" fill="#0E153A" fill-opacity="0.1"/>
<path fill-rule="evenodd" clip-rule="evenodd" d="M161.444 14.3203C161.033 14.3203 160.62 14.3203 160.208 14.3203C160.208 15.5433 160.208 16.7664 160.208 17.9894C160.619 17.9894 161.032 17.9894 161.444 17.9894C161.444 16.7664 161.444 15.5433 161.444 14.3203Z" fill="#0E153A" fill-opacity="0.1"/>
<path fill-rule="evenodd" clip-rule="evenodd" d="M163.642 16.9414C163.23 16.9414 162.818 16.9414 162.405 16.9414C162.405 18.1644 162.405 19.3874 162.405 20.6105C162.818 20.6105 163.23 20.6105 163.642 20.6105C163.642 19.3874 163.642 18.1644 163.642 16.9414Z" fill="#0E153A" fill-opacity="0.1"/>
<path fill-rule="evenodd" clip-rule="evenodd" d="M163.642 12.0859C163.23 12.0859 162.818 12.0859 162.405 12.0859C162.405 13.309 162.405 14.532 162.405 15.7562C162.818 15.7562 163.23 15.7562 163.642 15.7562C163.642 14.5332 163.642 13.3102 163.642 12.0859Z" fill="#0E153A" fill-opacity="0.1"/>
<path fill-rule="evenodd" clip-rule="evenodd" d="M165.837 14.7031C165.424 14.7031 165.013 14.7031 164.6 14.7031C164.6 15.9261 164.6 17.1492 164.6 18.3722C165.013 18.3722 165.424 18.3722 165.837 18.3722C165.837 17.1492 165.837 15.9261 165.837 14.7031Z" fill="#0E153A" fill-opacity="0.1"/>
<path fill-rule="evenodd" clip-rule="evenodd" d="M165.837 9.84766C165.424 9.84766 165.013 9.84766 164.6 9.84766C164.6 11.0707 164.6 12.2937 164.6 13.5167C165.013 13.5167 165.424 13.5167 165.837 13.5167C165.837 12.2937 165.837 11.0707 165.837 9.84766Z" fill="#0E153A" fill-opacity="0.1"/>
<path fill-rule="evenodd" clip-rule="evenodd" d="M168.045 12.4688C167.632 12.4687 167.221 12.4687 166.808 12.4687C166.808 13.6918 166.808 14.9148 166.808 16.139C167.221 16.139 167.632 16.139 168.045 16.139C168.045 14.916 168.045 13.6918 168.045 12.4688Z" fill="#0E153A" fill-opacity="0.1"/>
<path fill-rule="evenodd" clip-rule="evenodd" d="M168.045 7.61328C167.632 7.61328 167.221 7.61328 166.808 7.61328C166.808 8.8363 166.808 10.0593 166.808 11.2836C167.221 11.2836 167.632 11.2836 168.045 11.2836C168.045 10.0605 168.045 8.8363 168.045 7.61328Z" fill="#0E153A" fill-opacity="0.1"/>
<path fill-rule="evenodd" clip-rule="evenodd" d="M170.235 10.2344C169.824 10.2344 169.411 10.2344 168.999 10.2344C168.999 11.4586 168.999 12.6816 168.999 13.9046C169.411 13.9046 169.823 13.9046 170.235 13.9046C170.235 12.6816 170.235 11.4586 170.235 10.2344Z" fill="#0E153A" fill-opacity="0.1"/>
<path fill-rule="evenodd" clip-rule="evenodd" d="M170.235 5.37891C169.824 5.37891 169.411 5.37891 168.999 5.37891C168.999 6.60193 168.999 7.82494 168.999 9.04796C169.411 9.04796 169.823 9.04796 170.235 9.04796C170.235 7.82494 170.235 6.60193 170.235 5.37891Z" fill="#0E153A" fill-opacity="0.1"/>
<path fill-rule="evenodd" clip-rule="evenodd" d="M172.441 8.01172L171.205 8.01172L171.205 11.6808L172.441 11.6808L172.441 8.01172Z" fill="#0E153A" fill-opacity="0.1"/>
<path fill-rule="evenodd" clip-rule="evenodd" d="M172.441 3.15625L171.205 3.15625L171.205 6.82531L172.441 6.82531L172.441 3.15625Z" fill="#0E153A" fill-opacity="0.1"/>
<path fill-rule="evenodd" clip-rule="evenodd" d="M152.652 27.0128L151.416 27.0128L151.416 23.3437L152.652 23.3438L152.652 27.0128Z" fill="#0E153A" fill-opacity="0.1"/>
<path fill-rule="evenodd" clip-rule="evenodd" d="M152.652 31.8683L151.416 31.8683L151.416 28.1992L152.652 28.1992L152.652 31.8683Z" fill="#0E153A" fill-opacity="0.1"/>
<path fill-rule="evenodd" clip-rule="evenodd" d="M154.858 25.7383C154.447 25.7383 154.035 25.7383 153.622 25.7383C153.622 26.9613 153.622 28.1855 153.622 29.4086C154.033 29.4086 154.446 29.4086 154.858 29.4086C154.858 28.1855 154.858 26.9625 154.858 25.7383Z" fill="#0E153A" fill-opacity="0.1"/>
<path fill-rule="evenodd" clip-rule="evenodd" d="M154.858 21.0273C154.447 21.0273 154.035 21.0273 153.622 21.0273C153.622 22.2504 153.622 23.4734 153.622 24.6964C154.033 24.6964 154.446 24.6964 154.858 24.6964C154.858 23.4734 154.858 22.2504 154.858 21.0273Z" fill="#0E153A" fill-opacity="0.1"/>
<path fill-rule="evenodd" clip-rule="evenodd" d="M154.858 34.1105C154.447 34.1105 154.035 34.1105 153.622 34.1105C153.622 32.8875 153.622 31.6644 153.622 30.4414C154.033 30.4414 154.446 30.4414 154.858 30.4414C154.858 31.6644 154.858 32.8875 154.858 34.1105Z" fill="#0E153A" fill-opacity="0.1"/>
<path fill-rule="evenodd" clip-rule="evenodd" d="M159.245 33.712C158.834 33.712 158.421 33.712 158.009 33.712C158.009 32.489 158.009 31.266 158.009 30.043C158.421 30.043 158.833 30.043 159.245 30.043C159.245 31.266 159.245 32.489 159.245 33.712Z" fill="#0E153A" fill-opacity="0.1"/>
<path fill-rule="evenodd" clip-rule="evenodd" d="M159.245 38.5687C158.834 38.5687 158.421 38.5687 158.009 38.5687C158.009 37.3457 158.009 36.1227 158.009 34.8984C158.421 34.8984 158.833 34.8984 159.245 34.8984C159.245 36.1227 159.245 37.3457 159.245 38.5687Z" fill="#0E153A" fill-opacity="0.1"/>
<path fill-rule="evenodd" clip-rule="evenodd" d="M161.444 35.9386C161.033 35.9386 160.62 35.9386 160.208 35.9386C160.208 34.7156 160.208 33.4926 160.208 32.2695C160.619 32.2695 161.032 32.2695 161.444 32.2695C161.444 33.4926 161.444 34.7156 161.444 35.9386Z" fill="#0E153A" fill-opacity="0.1"/>
<path fill-rule="evenodd" clip-rule="evenodd" d="M161.444 40.7941C161.033 40.7941 160.62 40.7941 160.208 40.7941C160.208 39.571 160.208 38.348 160.208 37.125C160.619 37.125 161.032 37.125 161.444 37.125C161.444 38.348 161.444 39.571 161.444 40.7941Z" fill="#0E153A" fill-opacity="0.1"/>
<path fill-rule="evenodd" clip-rule="evenodd" d="M163.642 38.1808C163.23 38.1808 162.818 38.1808 162.405 38.1808C162.405 36.9577 162.405 35.7347 162.405 34.5117C162.818 34.5117 163.23 34.5117 163.642 34.5117C163.642 35.7347 163.642 36.9577 163.642 38.1808Z" fill="#0E153A" fill-opacity="0.1"/>
<path fill-rule="evenodd" clip-rule="evenodd" d="M163.642 43.0375C163.23 43.0375 162.818 43.0375 162.405 43.0375C162.405 41.8144 162.405 40.5914 162.405 39.3672C162.818 39.3672 163.23 39.3672 163.642 39.3672C163.642 40.5914 163.642 41.8144 163.642 43.0375Z" fill="#0E153A" fill-opacity="0.1"/>
<path fill-rule="evenodd" clip-rule="evenodd" d="M165.837 40.4073C165.424 40.4073 165.013 40.4073 164.6 40.4073C164.6 39.1843 164.6 37.9613 164.6 36.7383C165.013 36.7383 165.424 36.7383 165.837 36.7383C165.837 37.9613 165.837 39.1843 165.837 40.4073Z" fill="#0E153A" fill-opacity="0.1"/>
<path fill-rule="evenodd" clip-rule="evenodd" d="M165.837 45.2628C165.424 45.2628 165.013 45.2628 164.6 45.2628C164.6 44.0398 164.6 42.8168 164.6 41.5937C165.013 41.5937 165.424 41.5937 165.837 41.5938C165.837 42.8168 165.837 44.0398 165.837 45.2628Z" fill="#0E153A" fill-opacity="0.1"/>
<path fill-rule="evenodd" clip-rule="evenodd" d="M168.045 42.6495C167.632 42.6495 167.221 42.6495 166.808 42.6495C166.808 41.4265 166.808 40.2035 166.808 38.9805C167.221 38.9805 167.632 38.9805 168.045 38.9805C168.045 40.2035 168.045 41.4265 168.045 42.6495Z" fill="#0E153A" fill-opacity="0.1"/>
<path fill-rule="evenodd" clip-rule="evenodd" d="M168.045 47.505C167.632 47.505 167.221 47.505 166.808 47.505C166.808 46.282 166.808 45.059 166.808 43.8359C167.221 43.8359 167.632 43.8359 168.045 43.8359C168.045 45.059 168.045 46.282 168.045 47.505Z" fill="#0E153A" fill-opacity="0.1"/>
<path fill-rule="evenodd" clip-rule="evenodd" d="M170.235 44.8812C169.824 44.8812 169.411 44.8812 168.999 44.8812C168.999 43.6582 168.999 42.434 168.999 41.2109C169.411 41.2109 169.823 41.2109 170.235 41.2109C170.235 42.434 170.235 43.657 170.235 44.8812Z" fill="#0E153A" fill-opacity="0.1"/>
<path fill-rule="evenodd" clip-rule="evenodd" d="M170.235 49.7355C169.824 49.7355 169.411 49.7355 168.999 49.7355C168.999 48.5125 168.999 47.2894 168.999 46.0664C169.411 46.0664 169.823 46.0664 170.235 46.0664C170.235 47.2894 170.235 48.5125 170.235 49.7355Z" fill="#0E153A" fill-opacity="0.1"/>
<path fill-rule="evenodd" clip-rule="evenodd" d="M172.441 47.1105L171.205 47.1105L171.205 43.4414L172.441 43.4414L172.441 47.1105Z" fill="#0E153A" fill-opacity="0.1"/>
<path fill-rule="evenodd" clip-rule="evenodd" d="M172.441 51.9659L171.205 51.9659L171.205 48.2969L172.441 48.2969L172.441 51.9659Z" fill="#0E153A" fill-opacity="0.1"/>
<path fill-rule="evenodd" clip-rule="evenodd" d="M171.205 47.1105L172.441 47.1105L172.441 43.4414L171.205 43.4414L171.205 47.1105Z" fill="#0E153A" fill-opacity="0.1"/>
<path fill-rule="evenodd" clip-rule="evenodd" d="M171.205 51.9659L172.441 51.9659L172.441 48.2969L171.205 48.2969L171.205 51.9659Z" fill="#0E153A" fill-opacity="0.1"/>
<path fill-rule="evenodd" clip-rule="evenodd" d="M155.813 23.4062C156.225 23.4062 156.637 23.4062 157.05 23.4062C157.05 24.6293 157.05 25.8523 157.05 27.0753C156.637 27.0753 156.225 27.0753 155.813 27.0753C155.813 25.8523 155.813 24.6293 155.813 23.4062Z" fill="#0E153A" fill-opacity="0.1"/>
<path fill-rule="evenodd" clip-rule="evenodd" d="M155.813 18.7852C156.225 18.7852 156.637 18.7852 157.05 18.7852C157.05 20.0082 157.05 21.2312 157.05 22.4554C156.637 22.4554 156.225 22.4554 155.813 22.4554C155.813 21.2324 155.813 20.0082 155.813 18.7852Z" fill="#0E153A" fill-opacity="0.1"/>
<path fill-rule="evenodd" clip-rule="evenodd" d="M155.813 31.7042C156.225 31.7042 156.637 31.7042 157.05 31.7042C157.05 30.4812 157.05 29.2582 157.05 28.0352C156.637 28.0352 156.225 28.0352 155.813 28.0352C155.813 29.2582 155.813 30.4812 155.813 31.7042Z" fill="#0E153A" fill-opacity="0.1"/>
<path fill-rule="evenodd" clip-rule="evenodd" d="M155.813 36.3448C156.225 36.3448 156.637 36.3448 157.05 36.3448C157.05 35.1218 157.05 33.8988 157.05 32.6758C156.637 32.6758 156.225 32.6758 155.813 32.6758C155.813 33.8988 155.813 35.1218 155.813 36.3448Z" fill="#0E153A" fill-opacity="0.1"/>
<path fill-rule="evenodd" clip-rule="evenodd" d="M170.73 68.9258L171.967 68.9258L171.967 72.5961L170.73 72.5961L170.73 68.9258Z" fill="#0E153A" fill-opacity="0.1"/>
<path fill-rule="evenodd" clip-rule="evenodd" d="M174.097 71.3516L172.861 71.3516L172.861 75.0206L174.097 75.0206L174.097 71.3516Z" fill="#0E153A" fill-opacity="0.1"/>
<path fill-rule="evenodd" clip-rule="evenodd" d="M174.097 66.4961L172.861 66.4961L172.861 70.1664L174.097 70.1664L174.097 66.4961Z" fill="#0E153A" fill-opacity="0.1"/>
<path fill-rule="evenodd" clip-rule="evenodd" d="M174.097 70.2628L172.861 70.2628L172.861 66.5937L174.097 66.5938L174.097 70.2628Z" fill="#0E153A" fill-opacity="0.1"/>
<path fill-rule="evenodd" clip-rule="evenodd" d="M174.097 75.1183L172.861 75.1183L172.861 71.4492L174.097 71.4492L174.097 75.1183Z" fill="#0E153A" fill-opacity="0.1"/>
<path fill-rule="evenodd" clip-rule="evenodd" d="M126.853 68.9258L128.088 68.9258L128.088 72.5961L126.853 72.5961L126.853 68.9258Z" fill="#0E153A" fill-opacity="0.1"/>
<path fill-rule="evenodd" clip-rule="evenodd" d="M158.336 70.762L149.392 61.8164L140.446 70.762L149.392 79.7064L158.336 70.762Z" fill="#0E153A" fill-opacity="0.1"/>
<path fill-rule="evenodd" clip-rule="evenodd" d="M158.336 70.762L149.392 61.8164L140.446 70.762L149.392 79.7064L158.336 70.762Z" fill="#0E153A" fill-opacity="0.1"/>
<path fill-rule="evenodd" clip-rule="evenodd" d="M168.566 71.3516L169.801 71.3516L169.801 75.0206L168.566 75.0206L168.566 71.3516Z" fill="#0E153A" fill-opacity="0.1"/>
<path fill-rule="evenodd" clip-rule="evenodd" d="M168.566 66.4961L169.801 66.4961L169.801 70.1664L168.566 70.1664L168.566 66.4961Z" fill="#0E153A" fill-opacity="0.1"/>
<path fill-rule="evenodd" clip-rule="evenodd" d="M161.966 64.6523C162.377 64.6523 162.79 64.6523 163.202 64.6523C163.202 65.8754 163.202 67.0984 163.202 68.3214C162.791 68.3214 162.378 68.3214 161.966 68.3214C161.966 67.0984 161.966 65.8741 161.966 64.6523Z" fill="#0E153A" fill-opacity="0.1"/>
<path fill-rule="evenodd" clip-rule="evenodd" d="M161.966 59.7969C162.377 59.7969 162.79 59.7969 163.202 59.7969C163.202 61.0199 163.202 62.2429 163.202 63.4659C162.791 63.4659 162.378 63.4659 161.966 63.4659C161.966 62.2429 161.966 61.0199 161.966 59.7969Z" fill="#0E153A" fill-opacity="0.1"/>
<path fill-rule="evenodd" clip-rule="evenodd" d="M159.766 62.4141C160.178 62.4141 160.589 62.4141 161.002 62.4141C161.002 63.6371 161.002 64.8601 161.002 66.0831C160.591 66.0831 160.178 66.0831 159.766 66.0831C159.766 64.8601 159.766 63.6371 159.766 62.4141Z" fill="#0E153A" fill-opacity="0.1"/>
<path fill-rule="evenodd" clip-rule="evenodd" d="M159.766 57.5586C160.178 57.5586 160.589 57.5586 161.002 57.5586C161.002 58.7816 161.002 60.0059 161.002 61.2289C160.591 61.2289 160.178 61.2289 159.766 61.2289C159.766 60.0059 159.766 58.7828 159.766 57.5586Z" fill="#0E153A" fill-opacity="0.1"/>
<path fill-rule="evenodd" clip-rule="evenodd" d="M157.57 60.1836C157.982 60.1836 158.394 60.1836 158.806 60.1836C158.806 61.4066 158.806 62.6296 158.806 63.8527C158.394 63.8527 157.982 63.8527 157.57 63.8527C157.57 62.6296 157.57 61.4066 157.57 60.1836Z" fill="#0E153A" fill-opacity="0.1"/>
<path fill-rule="evenodd" clip-rule="evenodd" d="M157.57 55.3281C157.982 55.3281 158.394 55.3281 158.806 55.3281C158.806 56.5511 158.806 57.7742 158.806 58.9984C158.394 58.9984 157.982 58.9984 157.57 58.9984C157.57 57.7754 157.57 56.5524 157.57 55.3281Z" fill="#0E153A" fill-opacity="0.1"/>
<path fill-rule="evenodd" clip-rule="evenodd" d="M155.364 57.957C155.777 57.957 156.189 57.957 156.601 57.957C156.601 59.1801 156.601 60.4031 156.601 61.6261C156.188 61.6261 155.775 61.6261 155.364 61.6261C155.364 60.4031 155.364 59.1801 155.364 57.957Z" fill="#0E153A" fill-opacity="0.1"/>
<path fill-rule="evenodd" clip-rule="evenodd" d="M155.364 53.1016C155.777 53.1016 156.189 53.1016 156.601 53.1016C156.601 54.3246 156.601 55.5476 156.601 56.7718C156.188 56.7718 155.775 56.7718 155.364 56.7718C155.364 55.5488 155.364 54.3258 155.364 53.1016Z" fill="#0E153A" fill-opacity="0.1"/>
<path fill-rule="evenodd" clip-rule="evenodd" d="M153.175 55.7148C153.586 55.7148 153.999 55.7148 154.411 55.7148C154.411 56.9379 154.411 58.1609 154.411 59.3851C154 59.3851 153.587 59.3851 153.175 59.3851C153.175 58.1621 153.175 56.9379 153.175 55.7148Z" fill="#0E153A" fill-opacity="0.1"/>
<path fill-rule="evenodd" clip-rule="evenodd" d="M153.175 50.8594C153.586 50.8594 153.999 50.8594 154.411 50.8594C154.411 52.0824 154.411 53.3054 154.411 54.5284C154 54.5284 153.587 54.5284 153.175 54.5284C153.175 53.3054 153.175 52.0824 153.175 50.8594Z" fill="#0E153A" fill-opacity="0.1"/>
<path fill-rule="evenodd" clip-rule="evenodd" d="M150.966 53.4766C151.378 53.4766 151.791 53.4766 152.202 53.4766C152.202 54.6996 152.202 55.9226 152.202 57.1456C151.791 57.1456 151.378 57.1456 150.966 57.1456C150.966 55.9226 150.966 54.6984 150.966 53.4766Z" fill="#0E153A" fill-opacity="0.1"/>
<path fill-rule="evenodd" clip-rule="evenodd" d="M150.966 48.6211C151.378 48.6211 151.791 48.6211 152.202 48.6211C152.202 49.8441 152.202 51.0671 152.202 52.2901C151.791 52.2901 151.378 52.2901 150.966 52.2901C150.966 51.0671 150.966 49.8441 150.966 48.6211Z" fill="#0E153A" fill-opacity="0.1"/>
<path fill-rule="evenodd" clip-rule="evenodd" d="M148.778 51.2539L150.014 51.2539L150.014 54.9242L148.778 54.9242L148.778 51.2539Z" fill="#0E153A" fill-opacity="0.1"/>
<path fill-rule="evenodd" clip-rule="evenodd" d="M148.778 46.3984L150.014 46.3984L150.014 50.0675L148.778 50.0675L148.778 46.3984Z" fill="#0E153A" fill-opacity="0.1"/>
<path fill-rule="evenodd" clip-rule="evenodd" d="M130.219 71.3516L128.982 71.3516L128.982 75.0206L130.219 75.0206L130.219 71.3516Z" fill="#0E153A" fill-opacity="0.1"/>
<path fill-rule="evenodd" clip-rule="evenodd" d="M130.219 66.4961L128.982 66.4961L128.982 70.1664L130.219 70.1664L130.219 66.4961Z" fill="#0E153A" fill-opacity="0.1"/>
<path fill-rule="evenodd" clip-rule="evenodd" d="M136.819 64.6523C136.408 64.6523 135.995 64.6523 135.584 64.6523C135.584 65.8754 135.584 67.0984 135.584 68.3214C135.995 68.3214 136.408 68.3214 136.819 68.3214C136.819 67.0984 136.819 65.8741 136.819 64.6523Z" fill="#0E153A" fill-opacity="0.1"/>
<path fill-rule="evenodd" clip-rule="evenodd" d="M136.819 59.7969C136.408 59.7969 135.995 59.7969 135.584 59.7969C135.584 61.0199 135.584 62.2429 135.584 63.4659C135.995 63.4659 136.408 63.4659 136.819 63.4659C136.819 62.2429 136.819 61.0199 136.819 59.7969Z" fill="#0E153A" fill-opacity="0.1"/>
<path fill-rule="evenodd" clip-rule="evenodd" d="M139.019 62.4141C138.607 62.4141 138.195 62.4141 137.782 62.4141C137.782 63.6371 137.782 64.8601 137.782 66.0831C138.195 66.0831 138.607 66.0831 139.019 66.0831C139.019 64.8601 139.019 63.6371 139.019 62.4141Z" fill="#0E153A" fill-opacity="0.1"/>
<path fill-rule="evenodd" clip-rule="evenodd" d="M139.019 57.5586C138.607 57.5586 138.195 57.5586 137.782 57.5586C137.782 58.7816 137.782 60.0059 137.782 61.2289C138.195 61.2289 138.607 61.2289 139.019 61.2289C139.019 60.0059 139.019 58.7828 139.019 57.5586Z" fill="#0E153A" fill-opacity="0.1"/>
<path fill-rule="evenodd" clip-rule="evenodd" d="M141.214 60.1836C140.801 60.1836 140.39 60.1836 139.977 60.1836C139.977 61.4066 139.977 62.6296 139.977 63.8527C140.39 63.8527 140.801 63.8527 141.214 63.8527C141.214 62.6296 141.214 61.4066 141.214 60.1836Z" fill="#0E153A" fill-opacity="0.1"/>
<path fill-rule="evenodd" clip-rule="evenodd" d="M141.214 55.3281C140.801 55.3281 140.39 55.3281 139.977 55.3281C139.977 56.5511 139.977 57.7742 139.977 58.9984C140.39 58.9984 140.801 58.9984 141.214 58.9984C141.214 57.7754 141.214 56.5524 141.214 55.3281Z" fill="#0E153A" fill-opacity="0.1"/>
<path fill-rule="evenodd" clip-rule="evenodd" d="M143.414 57.957C143.003 57.957 142.59 57.957 142.178 57.957C142.178 59.1801 142.178 60.4031 142.178 61.6261C142.589 61.6261 143.002 61.6261 143.414 61.6261C143.414 60.4031 143.414 59.1801 143.414 57.957Z" fill="#0E153A" fill-opacity="0.1"/>
<path fill-rule="evenodd" clip-rule="evenodd" d="M143.414 53.1016C143.003 53.1016 142.59 53.1016 142.178 53.1016C142.178 54.3246 142.178 55.5476 142.178 56.7718C142.589 56.7718 143.002 56.7718 143.414 56.7718C143.414 55.5488 143.414 54.3258 143.414 53.1016Z" fill="#0E153A" fill-opacity="0.1"/>
<path fill-rule="evenodd" clip-rule="evenodd" d="M145.613 55.7148C145.201 55.7148 144.789 55.7148 144.377 55.7148C144.377 56.9379 144.377 58.1609 144.377 59.3851C144.789 59.3851 145.201 59.3851 145.613 59.3851C145.613 58.1621 145.613 56.9379 145.613 55.7148Z" fill="#0E153A" fill-opacity="0.1"/>
<path fill-rule="evenodd" clip-rule="evenodd" d="M145.613 50.8594C145.201 50.8594 144.789 50.8594 144.377 50.8594C144.377 52.0824 144.377 53.3054 144.377 54.5284C144.789 54.5284 145.201 54.5284 145.613 54.5284C145.613 53.3054 145.613 52.0824 145.613 50.8594Z" fill="#0E153A" fill-opacity="0.1"/>
<path fill-rule="evenodd" clip-rule="evenodd" d="M147.809 53.4766C147.396 53.4766 146.985 53.4766 146.572 53.4766C146.572 54.6996 146.572 55.9226 146.572 57.1456C146.983 57.1456 147.396 57.1456 147.809 57.1456C147.809 55.9226 147.809 54.6984 147.809 53.4766Z" fill="#0E153A" fill-opacity="0.1"/>
<path fill-rule="evenodd" clip-rule="evenodd" d="M147.809 48.6211C147.396 48.6211 146.985 48.6211 146.572 48.6211C146.572 49.8441 146.572 51.0671 146.572 52.2901C146.983 52.2901 147.396 52.2901 147.809 52.2901C147.809 51.0671 147.809 49.8441 147.809 48.6211Z" fill="#0E153A" fill-opacity="0.1"/>
<path fill-rule="evenodd" clip-rule="evenodd" d="M150.014 51.2539L148.778 51.2539L148.778 54.9242L150.014 54.9242L150.014 51.2539Z" fill="#0E153A" fill-opacity="0.1"/>
<path fill-rule="evenodd" clip-rule="evenodd" d="M150.014 46.3984L148.778 46.3984L148.778 50.0675L150.014 50.0675L150.014 46.3984Z" fill="#0E153A" fill-opacity="0.1"/>
<path fill-rule="evenodd" clip-rule="evenodd" d="M130.219 70.2628L128.982 70.2628L128.982 66.5937L130.219 66.5938L130.219 70.2628Z" fill="#0E153A" fill-opacity="0.1"/>
<path fill-rule="evenodd" clip-rule="evenodd" d="M130.219 75.1183L128.982 75.1183L128.982 71.4492L130.219 71.4492L130.219 75.1183Z" fill="#0E153A" fill-opacity="0.1"/>
<path fill-rule="evenodd" clip-rule="evenodd" d="M132.414 68.9805C132.003 68.9805 131.59 68.9805 131.178 68.9805C131.178 70.2035 131.178 71.4265 131.178 72.6495C131.589 72.6495 132.002 72.6495 132.414 72.6495C132.414 71.4265 132.414 70.2035 132.414 68.9805Z" fill="#0E153A" fill-opacity="0.1"/>
<path fill-rule="evenodd" clip-rule="evenodd" d="M132.414 64.2695C132.003 64.2695 131.59 64.2695 131.178 64.2695C131.178 65.4926 131.178 66.7156 131.178 67.9386C131.589 67.9386 132.002 67.9386 132.414 67.9386C132.414 66.7156 132.414 65.4926 132.414 64.2695Z" fill="#0E153A" fill-opacity="0.1"/>
<path fill-rule="evenodd" clip-rule="evenodd" d="M132.414 77.3526C132.003 77.3526 131.59 77.3526 131.178 77.3526C131.178 76.1296 131.178 74.9066 131.178 73.6836C131.589 73.6836 132.002 73.6836 132.414 73.6836C132.414 74.9066 132.414 76.1296 132.414 77.3526Z" fill="#0E153A" fill-opacity="0.1"/>
<path fill-rule="evenodd" clip-rule="evenodd" d="M136.819 76.962C136.408 76.962 135.995 76.962 135.584 76.962C135.584 75.739 135.584 74.516 135.584 73.293C135.995 73.293 136.408 73.293 136.819 73.293C136.819 74.516 136.819 75.739 136.819 76.962Z" fill="#0E153A" fill-opacity="0.1"/>
<path fill-rule="evenodd" clip-rule="evenodd" d="M136.819 81.8187C136.408 81.8187 135.995 81.8187 135.584 81.8187C135.584 80.5957 135.584 79.3715 135.584 78.1484C135.995 78.1484 136.408 78.1484 136.819 78.1484C136.819 79.3715 136.819 80.5945 136.819 81.8187Z" fill="#0E153A" fill-opacity="0.1"/>
<path fill-rule="evenodd" clip-rule="evenodd" d="M139.019 79.1964C138.607 79.1964 138.195 79.1964 137.782 79.1964C137.782 77.9734 137.782 76.7504 137.782 75.5273C138.195 75.5273 138.607 75.5273 139.019 75.5273C139.019 76.7504 139.019 77.9734 139.019 79.1964Z" fill="#0E153A" fill-opacity="0.1"/>
<path fill-rule="evenodd" clip-rule="evenodd" d="M139.019 84.0519C138.607 84.0519 138.195 84.0519 137.782 84.0519C137.782 82.8288 137.782 81.6058 137.782 80.3828C138.195 80.3828 138.607 80.3828 139.019 80.3828C139.019 81.6058 139.019 82.8288 139.019 84.0519Z" fill="#0E153A" fill-opacity="0.1"/>
<path fill-rule="evenodd" clip-rule="evenodd" d="M141.214 81.423C140.801 81.423 140.39 81.423 139.977 81.423C139.977 80.1999 139.977 78.9769 139.977 77.7539C140.39 77.7539 140.801 77.7539 141.214 77.7539C141.214 78.9769 141.214 80.1999 141.214 81.423Z" fill="#0E153A" fill-opacity="0.1"/>
<path fill-rule="evenodd" clip-rule="evenodd" d="M141.214 86.2784C140.801 86.2784 140.39 86.2784 139.977 86.2784C139.977 85.0554 139.977 83.8324 139.977 82.6094C140.39 82.6094 140.801 82.6094 141.214 82.6094C141.214 83.8324 141.214 85.0554 141.214 86.2784Z" fill="#0E153A" fill-opacity="0.1"/>
<path fill-rule="evenodd" clip-rule="evenodd" d="M143.414 83.6652C143.003 83.6652 142.59 83.6652 142.178 83.6652C142.178 82.4421 142.178 81.2191 142.178 79.9961C142.589 79.9961 143.002 79.9961 143.414 79.9961C143.414 81.2191 143.414 82.4421 143.414 83.6652Z" fill="#0E153A" fill-opacity="0.1"/>
<path fill-rule="evenodd" clip-rule="evenodd" d="M143.414 88.5206C143.003 88.5206 142.59 88.5206 142.178 88.5206C142.178 87.2976 142.178 86.0746 142.178 84.8516C142.589 84.8516 143.002 84.8516 143.414 84.8516C143.414 86.0746 143.414 87.2976 143.414 88.5206Z" fill="#0E153A" fill-opacity="0.1"/>
<path fill-rule="evenodd" clip-rule="evenodd" d="M145.613 85.8917C145.201 85.8917 144.789 85.8917 144.377 85.8917C144.377 84.6687 144.377 83.4457 144.377 82.2227C144.789 82.2227 145.201 82.2227 145.613 82.2227C145.613 83.4457 145.613 84.6687 145.613 85.8917Z" fill="#0E153A" fill-opacity="0.1"/>
<path fill-rule="evenodd" clip-rule="evenodd" d="M145.613 90.7472C145.201 90.7472 144.789 90.7472 144.377 90.7472C144.377 89.5242 144.377 88.3011 144.377 87.0781C144.789 87.0781 145.201 87.0781 145.613 87.0781C145.613 88.3011 145.613 89.5242 145.613 90.7472Z" fill="#0E153A" fill-opacity="0.1"/>
<path fill-rule="evenodd" clip-rule="evenodd" d="M147.809 88.1261C147.396 88.1261 146.985 88.1261 146.572 88.1261C146.572 86.9031 146.572 85.6813 146.572 84.457C146.983 84.457 147.396 84.457 147.809 84.457C147.809 85.6801 147.809 86.9031 147.809 88.1261Z" fill="#0E153A" fill-opacity="0.1"/>
<path fill-rule="evenodd" clip-rule="evenodd" d="M147.809 92.9828C147.396 92.9828 146.985 92.9828 146.572 92.9828C146.572 91.7598 146.572 90.5367 146.572 89.3125C146.983 89.3125 147.396 89.3125 147.809 89.3125C147.809 90.5355 147.809 91.7585 147.809 92.9828Z" fill="#0E153A" fill-opacity="0.1"/>
<path fill-rule="evenodd" clip-rule="evenodd" d="M150.014 90.3566L148.778 90.3566L148.778 86.6875L150.014 86.6875L150.014 90.3566Z" fill="#0E153A" fill-opacity="0.1"/>
<path fill-rule="evenodd" clip-rule="evenodd" d="M150.014 95.212L148.778 95.212L148.778 91.543L150.014 91.543L150.014 95.212Z" fill="#0E153A" fill-opacity="0.1"/>
<path fill-rule="evenodd" clip-rule="evenodd" d="M166.362 68.9297C166.775 68.9297 167.186 68.9297 167.599 68.9297C167.599 70.1527 167.599 71.3757 167.599 72.5988C167.186 72.5988 166.775 72.5988 166.362 72.5988C166.362 71.3757 166.362 70.1527 166.362 68.9297Z" fill="#0E153A" fill-opacity="0.1"/>
<path fill-rule="evenodd" clip-rule="evenodd" d="M166.362 64.2695C166.775 64.2695 167.186 64.2695 167.599 64.2695C167.599 65.4926 167.599 66.7156 167.599 67.9386C167.186 67.9386 166.775 67.9386 166.362 67.9386C166.362 66.7156 166.362 65.4926 166.362 64.2695Z" fill="#0E153A" fill-opacity="0.1"/>
<path fill-rule="evenodd" clip-rule="evenodd" d="M166.362 77.3526C166.775 77.3526 167.186 77.3526 167.599 77.3526C167.599 76.1296 167.599 74.9066 167.599 73.6836C167.186 73.6836 166.775 73.6836 166.362 73.6836C166.362 74.9066 166.362 76.1296 166.362 77.3526Z" fill="#0E153A" fill-opacity="0.1"/>
<path fill-rule="evenodd" clip-rule="evenodd" d="M164.174 66.6445C164.585 66.6445 164.999 66.6445 165.41 66.6445C165.41 67.8676 165.41 69.0906 165.41 70.3148C164.999 70.3148 164.585 70.3148 164.174 70.3148C164.174 69.0918 164.174 67.8688 164.174 66.6445Z" fill="#0E153A" fill-opacity="0.1"/>
<path fill-rule="evenodd" clip-rule="evenodd" d="M164.174 62.0234C164.585 62.0234 164.999 62.0234 165.41 62.0234C165.41 63.2465 165.41 64.4695 165.41 65.6925C164.999 65.6925 164.585 65.6925 164.174 65.6925C164.174 64.4695 164.174 63.2465 164.174 62.0234Z" fill="#0E153A" fill-opacity="0.1"/>
<path fill-rule="evenodd" clip-rule="evenodd" d="M164.174 74.9437C164.585 74.9437 164.999 74.9437 165.41 74.9437C165.41 73.7207 165.41 72.4977 165.41 71.2734C164.999 71.2734 164.585 71.2734 164.174 71.2734C164.174 72.4977 164.174 73.7207 164.174 74.9437Z" fill="#0E153A" fill-opacity="0.1"/>
<path fill-rule="evenodd" clip-rule="evenodd" d="M164.174 79.5831C164.585 79.5831 164.999 79.5831 165.41 79.5831C165.41 78.3601 165.41 77.1371 165.41 75.9141C164.999 75.9141 164.585 75.9141 164.174 75.9141C164.174 77.1371 164.174 78.3601 164.174 79.5831Z" fill="#0E153A" fill-opacity="0.1"/>
<path fill-rule="evenodd" clip-rule="evenodd" d="M161.966 76.962C162.377 76.962 162.79 76.962 163.202 76.962C163.202 75.739 163.202 74.516 163.202 73.293C162.791 73.293 162.378 73.293 161.966 73.293C161.966 74.516 161.966 75.739 161.966 76.962Z" fill="#0E153A" fill-opacity="0.1"/>
<path fill-rule="evenodd" clip-rule="evenodd" d="M161.966 81.8187C162.377 81.8187 162.79 81.8187 163.202 81.8187C163.202 80.5957 163.202 79.3715 163.202 78.1484C162.791 78.1484 162.378 78.1484 161.966 78.1484C161.966 79.3715 161.966 80.5945 161.966 81.8187Z" fill="#0E153A" fill-opacity="0.1"/>
<path fill-rule="evenodd" clip-rule="evenodd" d="M159.766 79.1964C160.178 79.1964 160.589 79.1964 161.002 79.1964C161.002 77.9734 161.002 76.7504 161.002 75.5273C160.591 75.5273 160.178 75.5273 159.766 75.5273C159.766 76.7504 159.766 77.9734 159.766 79.1964Z" fill="#0E153A" fill-opacity="0.1"/>
<path fill-rule="evenodd" clip-rule="evenodd" d="M159.766 84.0519C160.178 84.0519 160.589 84.0519 161.002 84.0519C161.002 82.8288 161.002 81.6058 161.002 80.3828C160.591 80.3828 160.178 80.3828 159.766 80.3828C159.766 81.6058 159.766 82.8288 159.766 84.0519Z" fill="#0E153A" fill-opacity="0.1"/>
<path fill-rule="evenodd" clip-rule="evenodd" d="M157.57 81.423C157.982 81.423 158.394 81.423 158.806 81.423C158.806 80.1999 158.806 78.9769 158.806 77.7539C158.394 77.7539 157.982 77.7539 157.57 77.7539C157.57 78.9769 157.57 80.1999 157.57 81.423Z" fill="#0E153A" fill-opacity="0.1"/>
<path fill-rule="evenodd" clip-rule="evenodd" d="M157.57 86.2784C157.982 86.2784 158.394 86.2784 158.806 86.2784C158.806 85.0554 158.806 83.8324 158.806 82.6094C158.394 82.6094 157.982 82.6094 157.57 82.6094C157.57 83.8324 157.57 85.0554 157.57 86.2784Z" fill="#0E153A" fill-opacity="0.1"/>
<path fill-rule="evenodd" clip-rule="evenodd" d="M155.364 83.6652C155.777 83.6652 156.189 83.6652 156.601 83.6652C156.601 82.4421 156.601 81.2191 156.601 79.9961C156.188 79.9961 155.775 79.9961 155.364 79.9961C155.364 81.2191 155.364 82.4421 155.364 83.6652Z" fill="#0E153A" fill-opacity="0.1"/>
<path fill-rule="evenodd" clip-rule="evenodd" d="M155.364 88.5206C155.777 88.5206 156.189 88.5206 156.601 88.5206C156.601 87.2976 156.601 86.0746 156.601 84.8516C156.188 84.8516 155.775 84.8516 155.364 84.8516C155.364 86.0746 155.364 87.2976 155.364 88.5206Z" fill="#0E153A" fill-opacity="0.1"/>
<path fill-rule="evenodd" clip-rule="evenodd" d="M153.175 85.8917C153.586 85.8917 153.999 85.8917 154.411 85.8917C154.411 84.6687 154.411 83.4457 154.411 82.2227C154 82.2227 153.587 82.2227 153.175 82.2227C153.175 83.4457 153.175 84.6687 153.175 85.8917Z" fill="#0E153A" fill-opacity="0.1"/>
<path fill-rule="evenodd" clip-rule="evenodd" d="M153.175 90.7472C153.586 90.7472 153.999 90.7472 154.411 90.7472C154.411 89.5242 154.411 88.3011 154.411 87.0781C154 87.0781 153.587 87.0781 153.175 87.0781C153.175 88.3011 153.175 89.5242 153.175 90.7472Z" fill="#0E153A" fill-opacity="0.1"/>
<path fill-rule="evenodd" clip-rule="evenodd" d="M150.966 88.1261C151.378 88.1261 151.791 88.1261 152.202 88.1261C152.202 86.9031 152.202 85.6813 152.202 84.457C151.791 84.457 151.378 84.457 150.966 84.457C150.966 85.6801 150.966 86.9031 150.966 88.1261Z" fill="#0E153A" fill-opacity="0.1"/>
<path fill-rule="evenodd" clip-rule="evenodd" d="M150.966 92.9828C151.378 92.9828 151.791 92.9828 152.202 92.9828C152.202 91.7598 152.202 90.5367 152.202 89.3125C151.791 89.3125 151.378 89.3125 150.966 89.3125C150.966 90.5355 150.966 91.7585 150.966 92.9828Z" fill="#0E153A" fill-opacity="0.1"/>
<path fill-rule="evenodd" clip-rule="evenodd" d="M148.778 90.3566L150.014 90.3566L150.014 86.6875L148.778 86.6875L148.778 90.3566Z" fill="#0E153A" fill-opacity="0.1"/>
<path fill-rule="evenodd" clip-rule="evenodd" d="M148.778 95.212L150.014 95.212L150.014 91.543L148.778 91.543L148.778 95.212Z" fill="#0E153A" fill-opacity="0.1"/>
<path fill-rule="evenodd" clip-rule="evenodd" d="M170.731 68.9258L171.968 68.9258L171.968 72.5961L170.731 72.5961L170.731 68.9258Z" fill="#0E153A" fill-opacity="0.1"/>
<path fill-rule="evenodd" clip-rule="evenodd" d="M133.387 66.6445C133.799 66.6445 134.21 66.6445 134.623 66.6445C134.623 67.8676 134.623 69.0906 134.623 70.3148C134.21 70.3148 133.799 70.3148 133.387 70.3148C133.387 69.0918 133.387 67.8688 133.387 66.6445Z" fill="#0E153A" fill-opacity="0.1"/>
<path fill-rule="evenodd" clip-rule="evenodd" d="M133.387 62.0234C133.799 62.0234 134.21 62.0234 134.623 62.0234C134.623 63.2465 134.623 64.4695 134.623 65.6925C134.21 65.6925 133.799 65.6925 133.387 65.6925C133.387 64.4695 133.387 63.2465 133.387 62.0234Z" fill="#0E153A" fill-opacity="0.1"/>
<path fill-rule="evenodd" clip-rule="evenodd" d="M133.387 74.9437C133.799 74.9437 134.21 74.9437 134.623 74.9437C134.623 73.7207 134.623 72.4977 134.623 71.2734C134.21 71.2734 133.799 71.2734 133.387 71.2734C133.387 72.4977 133.387 73.7207 133.387 74.9437Z" fill="#0E153A" fill-opacity="0.1"/>
<path fill-rule="evenodd" clip-rule="evenodd" d="M133.387 79.5831C133.799 79.5831 134.21 79.5831 134.623 79.5831C134.623 78.3601 134.623 77.1371 134.623 75.9141C134.21 75.9141 133.799 75.9141 133.387 75.9141C133.387 77.1371 133.387 78.3601 133.387 79.5831Z" fill="#0E153A" fill-opacity="0.1"/>
<path fill-rule="evenodd" clip-rule="evenodd" d="M149.282 109.059L150.519 109.059L150.519 112.728L149.282 112.728L149.282 109.059Z" fill="#0E153A" fill-opacity="0.1"/>
<path fill-rule="evenodd" clip-rule="evenodd" d="M180.767 110.894L171.821 101.949L162.877 110.894L170.331 118.348L173.313 118.348L180.767 110.894Z" fill="#0E153A" fill-opacity="0.1"/>
<path fill-rule="evenodd" clip-rule="evenodd" d="M180.767 110.894L171.821 101.949L162.877 110.894L170.331 118.348L173.313 118.348L180.767 110.894Z" fill="#0E153A" fill-opacity="0.1"/>
<path fill-rule="evenodd" clip-rule="evenodd" d="M171.205 91.3867L172.441 91.3867L172.441 95.057L171.205 95.057L171.205 91.3867Z" fill="#0E153A" fill-opacity="0.1"/>
<path fill-rule="evenodd" clip-rule="evenodd" d="M171.205 86.5312L172.441 86.5312L172.441 90.2003L171.205 90.2003L171.205 86.5312Z" fill="#0E153A" fill-opacity="0.1"/>
<path fill-rule="evenodd" clip-rule="evenodd" d="M152.652 111.496L151.416 111.496L151.416 115.165L152.652 115.165L152.652 111.496Z" fill="#0E153A" fill-opacity="0.1"/>
<path fill-rule="evenodd" clip-rule="evenodd" d="M152.652 106.641L151.416 106.641L151.416 110.311L152.652 110.311L152.652 106.641Z" fill="#0E153A" fill-opacity="0.1"/>
<path fill-rule="evenodd" clip-rule="evenodd" d="M159.245 104.789C158.834 104.789 158.421 104.789 158.009 104.789C158.009 106.012 158.009 107.235 158.009 108.458C158.421 108.458 158.833 108.458 159.245 108.458C159.245 107.235 159.245 106.012 159.245 104.789Z" fill="#0E153A" fill-opacity="0.1"/>
<path fill-rule="evenodd" clip-rule="evenodd" d="M159.245 99.9336C158.834 99.9336 158.421 99.9336 158.009 99.9336C158.009 101.157 158.009 102.38 158.009 103.603C158.421 103.603 158.833 103.603 159.245 103.603C159.245 102.38 159.245 101.155 159.245 99.9336Z" fill="#0E153A" fill-opacity="0.1"/>
<path fill-rule="evenodd" clip-rule="evenodd" d="M161.444 102.562C161.033 102.562 160.62 102.562 160.208 102.562C160.208 103.786 160.208 105.01 160.208 106.233C160.619 106.233 161.032 106.233 161.444 106.233C161.444 105.01 161.444 103.786 161.444 102.562Z" fill="#0E153A" fill-opacity="0.1"/>
<path fill-rule="evenodd" clip-rule="evenodd" d="M161.444 97.707C161.033 97.707 160.62 97.707 160.208 97.707C160.208 98.9301 160.208 100.153 160.208 101.376C160.619 101.376 161.032 101.376 161.444 101.376C161.444 100.153 161.444 98.9301 161.444 97.707Z" fill="#0E153A" fill-opacity="0.1"/>
<path fill-rule="evenodd" clip-rule="evenodd" d="M163.642 100.32C163.23 100.32 162.818 100.32 162.405 100.32C162.405 101.543 162.405 102.766 162.405 103.989C162.818 103.989 163.23 103.989 163.642 103.989C163.642 102.766 163.642 101.543 163.642 100.32Z" fill="#0E153A" fill-opacity="0.1"/>
<path fill-rule="evenodd" clip-rule="evenodd" d="M163.642 95.4648C163.23 95.4648 162.818 95.4648 162.405 95.4648C162.405 96.6879 162.405 97.9109 162.405 99.1351C162.818 99.1351 163.23 99.1351 163.642 99.1351C163.642 97.9121 163.642 96.6891 163.642 95.4648Z" fill="#0E153A" fill-opacity="0.1"/>
<path fill-rule="evenodd" clip-rule="evenodd" d="M165.837 98.1016C165.424 98.1016 165.013 98.1016 164.6 98.1016C164.6 99.3246 164.6 100.548 164.6 101.772C165.013 101.772 165.424 101.772 165.837 101.772C165.837 100.549 165.837 99.3246 165.837 98.1016Z" fill="#0E153A" fill-opacity="0.1"/>
<path fill-rule="evenodd" clip-rule="evenodd" d="M165.837 93.2461C165.424 93.2461 165.013 93.2461 164.6 93.2461C164.6 94.4691 164.6 95.6921 164.6 96.9164C165.013 96.9164 165.424 96.9164 165.837 96.9164C165.837 95.6933 165.837 94.4703 165.837 93.2461Z" fill="#0E153A" fill-opacity="0.1"/>
<path fill-rule="evenodd" clip-rule="evenodd" d="M168.045 95.8555C167.632 95.8555 167.221 95.8555 166.808 95.8555C166.808 97.0785 166.808 98.3015 166.808 99.5257C167.221 99.5257 167.632 99.5257 168.045 99.5257C168.045 98.3027 168.045 97.0797 168.045 95.8555Z" fill="#0E153A" fill-opacity="0.1"/>
<path fill-rule="evenodd" clip-rule="evenodd" d="M168.045 91C167.632 91 167.221 91 166.808 91C166.808 92.223 166.808 93.446 166.808 94.6703C167.221 94.6703 167.632 94.6703 168.045 94.6703C168.045 93.4473 168.045 92.2242 168.045 91Z" fill="#0E153A" fill-opacity="0.1"/>
<path fill-rule="evenodd" clip-rule="evenodd" d="M170.235 93.6172C169.824 93.6172 169.411 93.6172 168.999 93.6172C168.999 94.8402 168.999 96.0632 168.999 97.2863C169.411 97.2863 169.823 97.2863 170.235 97.2863C170.235 96.0632 170.235 94.8402 170.235 93.6172Z" fill="#0E153A" fill-opacity="0.1"/>
<path fill-rule="evenodd" clip-rule="evenodd" d="M170.235 88.7617C169.824 88.7617 169.411 88.7617 168.999 88.7617C168.999 89.9847 168.999 91.2078 168.999 92.432C169.411 92.432 169.823 92.432 170.235 92.432C170.235 91.209 170.235 89.986 170.235 88.7617Z" fill="#0E153A" fill-opacity="0.1"/>
<path fill-rule="evenodd" clip-rule="evenodd" d="M172.441 91.3867L171.205 91.3867L171.205 95.057L172.441 95.057L172.441 91.3867Z" fill="#0E153A" fill-opacity="0.1"/>
<path fill-rule="evenodd" clip-rule="evenodd" d="M172.441 86.5312L171.205 86.5312L171.205 90.2003L172.441 90.2003L172.441 86.5312Z" fill="#0E153A" fill-opacity="0.1"/>
<path fill-rule="evenodd" clip-rule="evenodd" d="M152.652 110.401L151.416 110.401L151.416 106.73L152.652 106.73L152.652 110.401Z" fill="#0E153A" fill-opacity="0.1"/>
<path fill-rule="evenodd" clip-rule="evenodd" d="M152.652 115.256L151.416 115.256L151.416 111.586L152.652 111.586L152.652 115.256Z" fill="#0E153A" fill-opacity="0.1"/>
<path fill-rule="evenodd" clip-rule="evenodd" d="M154.858 109.117C154.447 109.117 154.035 109.117 153.622 109.117C153.622 110.34 153.622 111.563 153.622 112.786C154.033 112.786 154.446 112.786 154.858 112.786C154.858 111.563 154.858 110.34 154.858 109.117Z" fill="#0E153A" fill-opacity="0.1"/>
<path fill-rule="evenodd" clip-rule="evenodd" d="M154.858 104.406C154.447 104.406 154.035 104.406 153.622 104.406C153.622 105.629 153.622 106.852 153.622 108.075C154.033 108.075 154.446 108.075 154.858 108.075C154.858 106.852 154.858 105.629 154.858 104.406Z" fill="#0E153A" fill-opacity="0.1"/>
<path fill-rule="evenodd" clip-rule="evenodd" d="M155.813 106.785C156.225 106.785 156.637 106.785 157.05 106.785C157.05 108.008 157.05 109.231 157.05 110.454C156.637 110.454 156.225 110.454 155.813 110.454C155.813 109.231 155.813 108.008 155.813 106.785Z" fill="#0E153A" fill-opacity="0.1"/>
<path fill-rule="evenodd" clip-rule="evenodd" d="M155.813 102.164C156.225 102.164 156.637 102.164 157.05 102.164C157.05 103.387 157.05 104.61 157.05 105.834C156.637 105.834 156.225 105.834 155.813 105.834C155.813 104.611 155.813 103.388 155.813 102.164Z" fill="#0E153A" fill-opacity="0.1"/>
<path fill-rule="evenodd" clip-rule="evenodd" d="M155.813 115.084C156.225 115.084 156.637 115.084 157.05 115.084C157.05 113.86 157.05 112.637 157.05 111.414C156.637 111.414 156.225 111.414 155.813 111.414C155.813 112.637 155.813 113.86 155.813 115.084Z" fill="#0E153A" fill-opacity="0.1"/>
<path fill-rule="evenodd" clip-rule="evenodd" d="M105.408 109.062L106.644 109.062L106.644 112.732L105.408 112.732L105.408 109.062Z" fill="#0E153A" fill-opacity="0.1"/>
<path fill-rule="evenodd" clip-rule="evenodd" d="M136.892 110.894L127.947 101.949L119.002 110.894L126.457 118.348L129.438 118.348L136.892 110.894Z" fill="#0E153A" fill-opacity="0.1"/>
<path fill-rule="evenodd" clip-rule="evenodd" d="M136.892 110.894L127.947 101.949L119.002 110.894L126.457 118.348L129.438 118.348L136.892 110.894Z" fill="#0E153A" fill-opacity="0.1"/>
<path fill-rule="evenodd" clip-rule="evenodd" d="M147.126 111.496L148.362 111.496L148.362 115.165L147.126 115.165L147.126 111.496Z" fill="#0E153A" fill-opacity="0.1"/>
<path fill-rule="evenodd" clip-rule="evenodd" d="M147.126 106.641L148.362 106.641L148.362 110.311L147.126 110.311L147.126 106.641Z" fill="#0E153A" fill-opacity="0.1"/>
<path fill-rule="evenodd" clip-rule="evenodd" d="M140.526 104.789C140.939 104.789 141.35 104.789 141.763 104.789C141.763 106.012 141.763 107.235 141.763 108.458C141.35 108.458 140.939 108.458 140.526 108.458C140.526 107.235 140.526 106.012 140.526 104.789Z" fill="#0E153A" fill-opacity="0.1"/>
<path fill-rule="evenodd" clip-rule="evenodd" d="M140.526 99.9336C140.939 99.9336 141.35 99.9336 141.763 99.9336C141.763 101.157 141.763 102.38 141.763 103.603C141.35 103.603 140.939 103.603 140.526 103.603C140.526 102.38 140.526 101.155 140.526 99.9336Z" fill="#0E153A" fill-opacity="0.1"/>
<path fill-rule="evenodd" clip-rule="evenodd" d="M138.318 102.562C138.731 102.562 139.143 102.562 139.555 102.562C139.555 103.786 139.555 105.01 139.555 106.233C139.143 106.233 138.731 106.233 138.318 106.233C138.318 105.01 138.318 103.786 138.318 102.562Z" fill="#0E153A" fill-opacity="0.1"/>
<path fill-rule="evenodd" clip-rule="evenodd" d="M138.318 97.707C138.731 97.707 139.143 97.707 139.555 97.707C139.555 98.9301 139.555 100.153 139.555 101.376C139.143 101.376 138.731 101.376 138.318 101.376C138.318 100.153 138.318 98.9301 138.318 97.707Z" fill="#0E153A" fill-opacity="0.1"/>
<path fill-rule="evenodd" clip-rule="evenodd" d="M136.132 100.32C136.543 100.32 136.956 100.32 137.367 100.32C137.367 101.543 137.367 102.766 137.367 103.989C136.956 103.989 136.543 103.989 136.132 103.989C136.132 102.766 136.132 101.543 136.132 100.32Z" fill="#0E153A" fill-opacity="0.1"/>
<path fill-rule="evenodd" clip-rule="evenodd" d="M136.132 95.4648C136.543 95.4648 136.956 95.4648 137.367 95.4648C137.367 96.6879 137.367 97.9109 137.367 99.1351C136.956 99.1351 136.543 99.1351 136.132 99.1351C136.132 97.9121 136.132 96.6891 136.132 95.4648Z" fill="#0E153A" fill-opacity="0.1"/>
<path fill-rule="evenodd" clip-rule="evenodd" d="M133.921 98.1016C134.333 98.1016 134.745 98.1016 135.157 98.1016C135.157 99.3246 135.157 100.548 135.157 101.772C134.745 101.772 134.333 101.772 133.921 101.772C133.921 100.549 133.921 99.3246 133.921 98.1016Z" fill="#0E153A" fill-opacity="0.1"/>
<path fill-rule="evenodd" clip-rule="evenodd" d="M133.921 93.2461C134.333 93.2461 134.745 93.2461 135.157 93.2461C135.157 94.4691 135.157 95.6921 135.157 96.9164C134.745 96.9164 134.333 96.9164 133.921 96.9164C133.921 95.6933 133.921 94.4703 133.921 93.2461Z" fill="#0E153A" fill-opacity="0.1"/>
<path fill-rule="evenodd" clip-rule="evenodd" d="M131.734 95.8555C132.146 95.8555 132.558 95.8555 132.971 95.8555C132.971 97.0785 132.971 98.3015 132.971 99.5257C132.559 99.5257 132.147 99.5257 131.734 99.5257C131.734 98.3027 131.734 97.0797 131.734 95.8555Z" fill="#0E153A" fill-opacity="0.1"/>
<path fill-rule="evenodd" clip-rule="evenodd" d="M131.734 91C132.146 91 132.558 91 132.971 91C132.971 92.223 132.971 93.446 132.971 94.6703C132.559 94.6703 132.147 94.6703 131.734 94.6703C131.734 93.4473 131.734 92.2242 131.734 91Z" fill="#0E153A" fill-opacity="0.1"/>
<path fill-rule="evenodd" clip-rule="evenodd" d="M129.526 93.6172C129.938 93.6172 130.35 93.6172 130.763 93.6172C130.763 94.8402 130.763 96.0632 130.763 97.2863C130.351 97.2863 129.939 97.2863 129.526 97.2863C129.526 96.0632 129.526 94.8402 129.526 93.6172Z" fill="#0E153A" fill-opacity="0.1"/>
<path fill-rule="evenodd" clip-rule="evenodd" d="M129.526 88.7617C129.938 88.7617 130.35 88.7617 130.763 88.7617C130.763 89.9847 130.763 91.2078 130.763 92.432C130.351 92.432 129.939 92.432 129.526 92.432C129.526 91.209 129.526 89.986 129.526 88.7617Z" fill="#0E153A" fill-opacity="0.1"/>
<path fill-rule="evenodd" clip-rule="evenodd" d="M127.331 91.3867L128.567 91.3867L128.567 95.057L127.331 95.057L127.331 91.3867Z" fill="#0E153A" fill-opacity="0.1"/>
<path fill-rule="evenodd" clip-rule="evenodd" d="M127.331 86.5312L128.567 86.5312L128.567 90.2003L127.331 90.2003L127.331 86.5312Z" fill="#0E153A" fill-opacity="0.1"/>
<path fill-rule="evenodd" clip-rule="evenodd" d="M108.775 111.496L107.539 111.496L107.539 115.165L108.775 115.165L108.775 111.496Z" fill="#0E153A" fill-opacity="0.1"/>
<path fill-rule="evenodd" clip-rule="evenodd" d="M108.775 106.641L107.539 106.641L107.539 110.311L108.775 110.311L108.775 106.641Z" fill="#0E153A" fill-opacity="0.1"/>
<path fill-rule="evenodd" clip-rule="evenodd" d="M115.371 104.793C114.96 104.793 114.547 104.793 114.135 104.793C114.135 106.016 114.135 107.239 114.135 108.462C114.546 108.462 114.959 108.462 115.371 108.462C115.371 107.239 115.371 106.016 115.371 104.793Z" fill="#0E153A" fill-opacity="0.1"/>
<path fill-rule="evenodd" clip-rule="evenodd" d="M115.371 99.9375C114.96 99.9375 114.547 99.9375 114.135 99.9375C114.135 101.161 114.135 102.384 114.135 103.607C114.546 103.607 114.959 103.607 115.371 103.607C115.371 102.384 115.371 101.159 115.371 99.9375Z" fill="#0E153A" fill-opacity="0.1"/>
<path fill-rule="evenodd" clip-rule="evenodd" d="M117.577 102.562C117.165 102.562 116.753 102.562 116.341 102.562C116.341 103.786 116.341 105.01 116.341 106.233C116.753 106.233 117.165 106.233 117.577 106.233C117.577 105.01 117.577 103.786 117.577 102.562Z" fill="#0E153A" fill-opacity="0.1"/>
<path fill-rule="evenodd" clip-rule="evenodd" d="M117.577 97.707C117.165 97.707 116.753 97.707 116.341 97.707C116.341 98.9301 116.341 100.153 116.341 101.376C116.753 101.376 117.165 101.376 117.577 101.376C117.577 100.153 117.577 98.9301 117.577 97.707Z" fill="#0E153A" fill-opacity="0.1"/>
<path fill-rule="evenodd" clip-rule="evenodd" d="M119.775 100.32C119.364 100.32 118.951 100.32 118.539 100.32C118.539 101.543 118.539 102.766 118.539 103.989C118.95 103.989 119.363 103.989 119.775 103.989C119.775 102.766 119.775 101.543 119.775 100.32Z" fill="#0E153A" fill-opacity="0.1"/>
<path fill-rule="evenodd" clip-rule="evenodd" d="M119.775 95.4648C119.364 95.4648 118.951 95.4648 118.539 95.4648C118.539 96.6879 118.539 97.9109 118.539 99.1351C118.95 99.1351 119.363 99.1351 119.775 99.1351C119.775 97.9121 119.775 96.6891 119.775 95.4648Z" fill="#0E153A" fill-opacity="0.1"/>
<path fill-rule="evenodd" clip-rule="evenodd" d="M121.972 98.1016C121.559 98.1016 121.148 98.1016 120.735 98.1016C120.735 99.3246 120.735 100.548 120.735 101.772C121.147 101.772 121.559 101.772 121.972 101.772C121.972 100.549 121.972 99.3246 121.972 98.1016Z" fill="#0E153A" fill-opacity="0.1"/>
<path fill-rule="evenodd" clip-rule="evenodd" d="M121.972 93.2461C121.559 93.2461 121.148 93.2461 120.735 93.2461C120.735 94.4691 120.735 95.6921 120.735 96.9164C121.147 96.9164 121.559 96.9164 121.972 96.9164C121.972 95.6933 121.972 94.4703 121.972 93.2461Z" fill="#0E153A" fill-opacity="0.1"/>
<path fill-rule="evenodd" clip-rule="evenodd" d="M124.163 95.8555C123.751 95.8555 123.339 95.8555 122.927 95.8555C122.927 97.0785 122.927 98.3015 122.927 99.5257C123.339 99.5257 123.751 99.5257 124.163 99.5257C124.163 98.3027 124.163 97.0797 124.163 95.8555Z" fill="#0E153A" fill-opacity="0.1"/>
<path fill-rule="evenodd" clip-rule="evenodd" d="M124.163 91C123.751 91 123.339 91 122.927 91C122.927 92.223 122.927 93.446 122.927 94.6703C123.339 94.6703 123.751 94.6703 124.163 94.6703C124.163 93.4473 124.163 92.2242 124.163 91Z" fill="#0E153A" fill-opacity="0.1"/>
<path fill-rule="evenodd" clip-rule="evenodd" d="M126.359 93.6172C125.948 93.6172 125.535 93.6172 125.124 93.6172C125.124 94.8402 125.124 96.0632 125.124 97.2863C125.535 97.2863 125.948 97.2863 126.359 97.2863C126.359 96.0632 126.359 94.8402 126.359 93.6172Z" fill="#0E153A" fill-opacity="0.1"/>
<path fill-rule="evenodd" clip-rule="evenodd" d="M126.359 88.7617C125.948 88.7617 125.535 88.7617 125.124 88.7617C125.124 89.9847 125.124 91.2078 125.124 92.432C125.535 92.432 125.948 92.432 126.359 92.432C126.359 91.209 126.359 89.986 126.359 88.7617Z" fill="#0E153A" fill-opacity="0.1"/>
<path fill-rule="evenodd" clip-rule="evenodd" d="M128.567 91.3867L127.331 91.3867L127.331 95.057L128.567 95.057L128.567 91.3867Z" fill="#0E153A" fill-opacity="0.1"/>
<path fill-rule="evenodd" clip-rule="evenodd" d="M128.567 86.5312L127.331 86.5312L127.331 90.2003L128.567 90.2003L128.567 86.5312Z" fill="#0E153A" fill-opacity="0.1"/>
<path fill-rule="evenodd" clip-rule="evenodd" d="M108.775 110.401L107.539 110.401L107.539 106.73L108.775 106.73L108.775 110.401Z" fill="#0E153A" fill-opacity="0.1"/>
<path fill-rule="evenodd" clip-rule="evenodd" d="M108.775 115.256L107.539 115.256L107.539 111.586L108.775 111.586L108.775 115.256Z" fill="#0E153A" fill-opacity="0.1"/>
<path fill-rule="evenodd" clip-rule="evenodd" d="M110.976 109.117C110.563 109.117 110.152 109.117 109.739 109.117C109.739 110.34 109.739 111.563 109.739 112.786C110.15 112.786 110.563 112.786 110.976 112.786C110.976 111.563 110.976 110.34 110.976 109.117Z" fill="#0E153A" fill-opacity="0.1"/>
<path fill-rule="evenodd" clip-rule="evenodd" d="M110.976 104.406C110.563 104.406 110.152 104.406 109.739 104.406C109.739 105.629 109.739 106.852 109.739 108.075C110.15 108.075 110.563 108.075 110.976 108.075C110.976 106.852 110.976 105.629 110.976 104.406Z" fill="#0E153A" fill-opacity="0.1"/>
<path fill-rule="evenodd" clip-rule="evenodd" d="M144.92 109.066C145.332 109.066 145.744 109.066 146.156 109.066C146.156 110.289 146.156 111.514 146.156 112.737C145.745 112.737 145.332 112.737 144.92 112.737C144.92 111.514 144.92 110.289 144.92 109.066Z" fill="#0E153A" fill-opacity="0.1"/>
<path fill-rule="evenodd" clip-rule="evenodd" d="M144.92 104.406C145.332 104.406 145.744 104.406 146.156 104.406C146.156 105.629 146.156 106.852 146.156 108.075C145.745 108.075 145.332 108.075 144.92 108.075C144.92 106.852 144.92 105.629 144.92 104.406Z" fill="#0E153A" fill-opacity="0.1"/>
<path fill-rule="evenodd" clip-rule="evenodd" d="M142.721 106.785C143.133 106.785 143.546 106.785 143.957 106.785C143.957 108.008 143.957 109.231 143.957 110.454C143.544 110.454 143.133 110.454 142.721 110.454C142.721 109.231 142.721 108.008 142.721 106.785Z" fill="#0E153A" fill-opacity="0.1"/>
<path fill-rule="evenodd" clip-rule="evenodd" d="M142.721 102.164C143.133 102.164 143.546 102.164 143.957 102.164C143.957 103.387 143.957 104.61 143.957 105.834C143.544 105.834 143.133 105.834 142.721 105.834C142.721 104.611 142.721 103.388 142.721 102.164Z" fill="#0E153A" fill-opacity="0.1"/>
<path fill-rule="evenodd" clip-rule="evenodd" d="M142.721 115.084C143.133 115.084 143.546 115.084 143.957 115.084C143.957 113.86 143.957 112.637 143.957 111.414C143.544 111.414 143.133 111.414 142.721 111.414C142.721 112.637 142.721 113.86 142.721 115.084Z" fill="#0E153A" fill-opacity="0.1"/>
<path fill-rule="evenodd" clip-rule="evenodd" d="M149.287 109.062L150.523 109.062L150.523 112.732L149.287 112.732L149.287 109.062Z" fill="#0E153A" fill-opacity="0.1"/>
<path fill-rule="evenodd" clip-rule="evenodd" d="M111.935 106.785C112.348 106.785 112.759 106.785 113.172 106.785C113.172 108.008 113.172 109.231 113.172 110.454C112.761 110.454 112.348 110.454 111.935 110.454C111.935 109.231 111.935 108.008 111.935 106.785Z" fill="#0E153A" fill-opacity="0.1"/>
<path fill-rule="evenodd" clip-rule="evenodd" d="M111.935 102.164C112.348 102.164 112.759 102.164 113.172 102.164C113.172 103.387 113.172 104.61 113.172 105.834C112.761 105.834 112.348 105.834 111.935 105.834C111.935 104.611 111.935 103.388 111.935 102.164Z" fill="#0E153A" fill-opacity="0.1"/>
<path fill-rule="evenodd" clip-rule="evenodd" d="M111.935 115.084C112.348 115.084 112.759 115.084 113.172 115.084C113.172 113.86 113.172 112.637 113.172 111.414C112.761 111.414 112.348 111.414 111.935 111.414C111.935 112.637 111.935 113.86 111.935 115.084Z" fill="#0E153A" fill-opacity="0.1"/>
</g>
<rect x="0.5" y="0.5" width="172" height="111" stroke="#EAEAEA"/>
<defs>
<clipPath id="clip0_2138_1528">
<rect width="173" height="112" fill="white"/>
</clipPath>
</defs>
</svg>
