<svg width="355" height="354" viewBox="0 0 355 354" fill="none" xmlns="http://www.w3.org/2000/svg">
<path d="M296.024 232.2C294.072 248.033 275.329 259.763 266.202 263.649C208.942 283.604 124.681 257.684 89.7086 242.23C32.2328 224.228 28.7083 190.086 34.1306 175.265C38.6853 150.757 66.2122 112.819 79.4063 96.914C104.566 65.2481 134.533 41.2456 146.371 33.2026C166.759 17.1528 184.616 22.4162 190.581 25.3081C197.955 28.7783 213.787 40.6138 221.197 47.8438C248.037 73.5995 265.659 106.946 281.113 138.124C296.566 169.302 298.464 212.409 296.024 232.2Z" fill="#FCF3F4"/>
<g clip-path="url(#clip0_2957_1660)">
<mask id="mask0_2957_1660" style="mask-type:luminance" maskUnits="userSpaceOnUse" x="84" y="89" width="188" height="188">
<path d="M84 89H272V277H84V89Z" fill="white"/>
</mask>
<g mask="url(#mask0_2957_1660)">
<path d="M272 177.591C272 179.464 271.908 181.315 271.721 183.139C268.93 211.027 245.327 232.875 216.716 232.875L206.09 177.591L216.716 122.308C247.2 122.308 272 147.107 272 177.591Z" fill="#FAB400"/>
<path d="M216.717 122.308V232.875C208.97 232.875 201.505 231.311 194.495 228.226L174.696 232.739C174.289 232.831 173.881 232.875 173.474 232.875C172.13 232.875 170.815 232.383 169.794 231.465C168.462 230.272 167.793 228.505 168.003 226.728L170.246 207.546C165.476 200.166 162.572 191.845 161.709 183.139C161.525 181.307 161.434 179.453 161.434 177.591C161.434 147.107 186.233 122.308 216.717 122.308Z" fill="#EFA40A"/>
<path d="M161.972 239.547C160.665 235.343 157.566 232.005 153.468 230.393C149.374 228.785 144.832 229.115 141.013 231.304L135.498 234.465C134.25 232.614 133.023 230.481 131.826 228.083C124.35 213.131 120.234 204.895 120.234 183.14C120.234 161.105 124.596 152.377 131.822 137.917C133.093 135.379 134.393 133.14 135.715 131.219L140.815 134.293C144.637 136.599 149.227 137.01 153.398 135.42C157.57 133.834 160.724 130.478 162.046 126.211L166.353 112.342C168.159 106.526 166.099 100.166 161.227 96.5127C154.577 91.5263 147.487 89 140.154 89C124.152 89 109.758 98.2311 99.6275 114.997C89.405 131.913 84 155.476 84 183.14C84 210.789 89.405 234.307 99.6348 251.154C109.755 267.82 124.145 277 140.154 277C147.487 277 154.577 274.474 161.227 269.487C166.099 265.834 168.159 259.474 166.353 253.658L161.972 239.547Z" fill="#C91022"/>
<path d="M232.344 199.886C228.169 204.057 222.617 206.359 216.716 206.359L212.148 199.706L216.716 195.344C219.676 195.344 222.459 194.191 224.552 192.094C226.704 189.946 230.192 189.946 232.344 192.094C234.492 194.246 234.492 197.734 232.344 199.886Z" fill="white"/>
<path d="M216.718 195.344V206.359C210.813 206.359 205.265 204.057 201.09 199.886C198.939 197.734 198.939 194.246 201.09 192.094C203.242 189.946 206.73 189.946 208.878 192.094C210.971 194.191 213.755 195.344 216.718 195.344Z" fill="white"/>
</g>
</g>
<defs>
<clipPath id="clip0_2957_1660">
<rect width="188" height="188" fill="white" transform="translate(84 89)"/>
</clipPath>
</defs>
</svg>
