<svg width="303" height="312" viewBox="0 0 303 312" fill="none" xmlns="http://www.w3.org/2000/svg">
<path d="M226.668 262.876C217.061 275.612 194.964 276.399 185.116 275.201C125.551 263.852 65.5387 199.275 42.9784 168.405C2.20387 124.077 16.2226 92.7469 28.3288 82.6228C44.5276 63.6751 87.3354 44.5836 106.715 37.4063C144.336 22.5624 182.289 16.7592 196.563 15.713C222.245 12.0072 235.078 25.4944 238.798 30.981C243.449 37.6735 251.242 55.8392 254.044 65.8056C264.41 101.531 262.998 139.221 260.792 173.949C258.586 208.676 238.677 246.957 226.668 262.876Z" fill="#FCF3F4"/>
<path d="M234.705 141.941V233.158C234.705 239.232 229.788 244.154 223.709 244.154H80.2856C74.2108 244.154 69.2891 239.232 69.2891 233.158V141.941C72.7138 143.968 76.7099 145.13 80.9752 145.13C86.7852 145.13 92.1325 142.961 96.2087 139.353C100.285 135.749 103.082 130.694 103.785 124.931L104.569 118.488C104.456 119.457 104.394 120.425 104.394 121.374C104.394 134.303 114.904 145.13 128.197 145.13C141.342 145.13 151.999 134.473 151.999 121.332C151.999 134.473 162.651 145.13 175.796 145.13C189.098 145.13 199.603 134.303 199.603 121.365C199.603 120.425 199.547 119.476 199.428 118.512L200.212 124.932C200.916 130.694 203.712 135.749 207.784 139.353C211.861 142.962 217.213 145.13 223.018 145.13C227.285 145.13 231.281 143.968 234.705 141.941Z" fill="#FFAB00"/>
<path d="M234.704 159.934V170.954C231.279 172.98 227.283 174.142 223.018 174.142C217.213 174.142 211.861 171.974 207.784 168.365C203.713 164.761 200.916 159.707 200.212 153.944L199.428 147.524C199.547 148.488 199.603 149.437 199.603 150.377C199.603 163.315 189.098 174.142 175.796 174.142C162.651 174.142 151.999 163.485 151.999 150.344C151.999 163.486 141.342 174.142 128.197 174.142C114.904 174.142 104.394 163.315 104.394 150.387C104.394 149.437 104.456 148.469 104.569 147.501L103.785 153.944C103.081 159.706 100.285 164.761 96.2087 168.365C92.1322 171.974 86.7852 174.142 80.9752 174.142C76.7099 174.142 72.7135 172.98 69.2891 170.954V159.933C72.7138 161.96 76.7099 163.122 80.9752 163.122C86.7852 163.122 92.1325 160.954 96.2087 157.345C100.285 153.741 103.082 148.687 103.785 142.924L104.569 136.48C104.456 137.449 104.394 138.417 104.394 139.367C104.394 152.295 114.904 163.122 128.197 163.122C141.342 163.122 151.999 152.465 151.999 139.324C151.999 152.466 162.651 163.122 175.796 163.122C189.098 163.122 199.603 152.295 199.603 139.357C199.603 138.417 199.547 137.468 199.428 136.504L200.212 142.924C200.916 148.687 203.712 153.741 207.784 157.345C211.861 160.954 217.213 163.122 223.018 163.122C227.284 163.122 231.28 161.96 234.704 159.934Z" fill="#FDBA31"/>
<path d="M199.43 137.199C199.548 138.162 199.605 139.112 199.605 140.052C199.605 152.99 189.1 163.816 175.798 163.816C162.652 163.816 152.001 153.16 152.001 140.019L140.664 112.351L152 79.7969H192.435L204.59 112.388L199.425 137.137C199.43 137.156 199.43 137.18 199.43 137.199Z" fill="#BB1B2E"/>
<path d="M111.561 79.7969L122.084 115.567L104.575 137.137L103.786 143.618C103.083 149.38 100.286 154.435 96.2099 158.039C92.1334 161.648 86.7864 163.816 80.9764 163.816C76.7111 163.816 72.7147 162.654 69.2903 160.628V160.623C62.53 156.626 58 149.262 58 140.84V139.135L73.6499 85.5379C74.6431 82.1355 77.7628 79.7969 81.3072 79.7969H111.561Z" fill="#BB1B2E"/>
<path d="M234.705 160.628C231.28 162.654 227.284 163.816 223.019 163.816C217.214 163.816 211.862 161.648 207.785 158.039C203.714 154.435 200.917 149.381 200.213 143.618L199.429 137.198C199.429 137.179 199.429 137.156 199.424 137.137L192.434 79.7969H222.688C226.232 79.7969 229.352 82.1355 230.345 85.5375L245.999 139.135V140.84C245.999 149.263 241.465 156.627 234.705 160.628Z" fill="#C91022"/>
<path d="M151.999 79.7972V140.019C151.999 153.16 141.342 163.816 128.197 163.816C114.905 163.816 104.395 152.989 104.395 140.061C104.395 139.111 104.456 138.143 104.569 137.175C104.569 137.16 104.574 137.151 104.574 137.137L111.56 79.7969L151.999 79.7972Z" fill="#C91022"/>
<rect x="175.5" y="185.5" width="41.125" height="58.75" fill="white"/>
<rect x="181.375" y="214.875" width="5.875" height="11.75" rx="2.9375" fill="#FFAB00"/>
</svg>
