<svg width="312" height="304" viewBox="0 0 312 304" fill="none" xmlns="http://www.w3.org/2000/svg">
<path d="M286.227 140.727C292.453 155.415 282.087 174.945 276.125 182.874C236.514 228.786 150.582 248.469 112.568 252.571C53.7916 265.719 33.6683 237.914 30.9537 222.367C22.6439 198.865 27.5141 152.246 30.9879 131.875C36.9435 91.8718 50.8944 56.1016 57.1254 43.2169C66.7567 19.1235 84.8536 14.7529 91.4649 14.2751C99.5864 13.5933 119.215 15.9272 129.247 18.4836C165.369 27.3686 197.304 47.4366 226.276 66.7108C255.248 85.985 278.445 122.368 286.227 140.727Z" fill="#FCF3F4"/>
<g clip-path="url(#clip0_2957_1658)">
<path d="M198.603 69.8756V207.471C198.603 213.989 193.245 219.347 186.727 219.347H88.1959C81.6777 219.347 76.3203 213.989 76.3203 207.471V93.8052L112.126 58H186.727C193.29 58 198.603 63.3574 198.603 69.8756Z" fill="#FFAB00"/>
<path d="M112.17 58V81.9743C112.17 88.4925 106.813 93.8499 100.295 93.8499H76.3203L112.17 58Z" fill="#EFA000"/>
<path d="M235.882 96.5279V234.124C235.882 240.642 230.524 245.999 224.006 245.999H125.43C118.912 245.999 113.555 240.642 113.555 234.124V120.458L149.36 84.6523H223.962C230.524 84.6523 235.882 89.9651 235.882 96.5279Z" fill="#C91022"/>
<path d="M149.405 84.6523V108.627C149.405 115.145 144.047 120.502 137.529 120.502H113.555L149.405 84.6523Z" fill="#BB1B2E"/>
<path d="M135.43 154.164H213.96C216.327 154.164 218.336 152.245 218.336 149.789C218.336 147.423 216.416 145.414 213.96 145.414H135.43C133.064 145.414 131.055 147.334 131.055 149.789C131.144 152.155 133.019 154.164 135.43 154.164Z" fill="#EFEFEF"/>
<path d="M214.05 167.066H135.43C133.064 167.066 131.055 168.986 131.055 171.442C131.055 173.808 132.974 175.817 135.43 175.817H213.96C216.327 175.817 218.336 173.897 218.336 171.442C218.291 169.075 216.416 167.066 214.05 167.066Z" fill="#EFEFEF"/>
<path d="M214.05 188.766H135.43C133.064 188.766 131.055 190.685 131.055 193.141C131.055 195.641 132.974 197.516 135.43 197.516H213.96C216.327 197.516 218.336 195.596 218.336 193.141C218.291 190.685 216.416 188.766 214.05 188.766Z" fill="#EFEFEF"/>
<path d="M186.504 210.016H135.43C133.064 210.016 131.055 211.935 131.055 214.391C131.055 216.757 132.974 218.766 135.43 218.766H186.548C188.915 218.766 190.924 216.846 190.924 214.391C190.924 212.025 189.004 210.016 186.504 210.016Z" fill="#EFEFEF"/>
</g>
<defs>
<clipPath id="clip0_2957_1658">
<rect width="188" height="188" fill="white" transform="translate(62 58)"/>
</clipPath>
</defs>
</svg>
