<svg width="390" height="223" viewBox="0 0 390 223" fill="none" xmlns="http://www.w3.org/2000/svg">
<path fill-rule="evenodd" clip-rule="evenodd" d="M194.55 134.742L102.434 223.183L194.55 311.612L286.653 223.183L194.55 134.742Z" fill="white" fill-opacity="0.1"/>
<path fill-rule="evenodd" clip-rule="evenodd" d="M200.619 33.6421L200.619 21.418L238.401 21.418L238.401 33.6421L200.619 33.6421Z" fill="white" fill-opacity="0.15"/>
<path fill-rule="evenodd" clip-rule="evenodd" d="M150.648 33.6421L150.648 21.418L188.443 21.418L188.443 33.6421L150.648 33.6421Z" fill="white" fill-opacity="0.15"/>
<path fill-rule="evenodd" clip-rule="evenodd" d="M131.591 98.8452C131.591 94.7786 131.591 90.6998 131.591 86.6211C144.185 86.6211 156.778 86.6211 169.372 86.6211C169.372 90.6878 169.372 94.7665 169.372 98.8452C156.778 98.8452 144.172 98.8452 131.591 98.8452Z" fill="white" fill-opacity="0.15"/>
<path fill-rule="evenodd" clip-rule="evenodd" d="M81.6211 98.8452C81.6211 94.7786 81.6211 90.6998 81.6211 86.6211C94.215 86.6211 106.809 86.6211 119.403 86.6211C119.403 90.6878 119.403 94.7665 119.403 98.8452C106.809 98.8452 94.215 98.8452 81.6211 98.8452Z" fill="white" fill-opacity="0.15"/>
<path fill-rule="evenodd" clip-rule="evenodd" d="M108.632 120.603C108.632 116.524 108.632 112.458 108.632 108.379C121.226 108.379 133.819 108.379 146.413 108.379C146.413 112.458 146.413 116.524 146.413 120.603C133.819 120.603 121.226 120.603 108.632 120.603Z" fill="white" fill-opacity="0.15"/>
<path fill-rule="evenodd" clip-rule="evenodd" d="M58.6621 120.603C58.6621 116.524 58.6621 112.458 58.6621 108.379C71.256 108.379 83.8625 108.379 96.4564 108.379C96.4564 112.458 96.4564 116.524 96.4564 120.603C83.8625 120.603 71.2685 120.603 58.6621 120.603Z" fill="white" fill-opacity="0.15"/>
<path fill-rule="evenodd" clip-rule="evenodd" d="M58.6621 120.603C58.6621 116.524 58.6621 112.458 58.6621 108.379C71.256 108.379 83.8625 108.379 96.4564 108.379C96.4564 112.458 96.4564 116.524 96.4564 120.603C83.8625 120.603 71.2685 120.603 58.6621 120.603Z" fill="white" fill-opacity="0.15"/>
<path fill-rule="evenodd" clip-rule="evenodd" d="M85.6562 142.326C85.6562 138.247 85.6562 134.168 85.6562 130.102C98.2501 130.102 110.844 130.102 123.438 130.102C123.438 134.168 123.438 138.247 123.438 142.326C110.844 142.326 98.2501 142.326 85.6562 142.326Z" fill="white" fill-opacity="0.15"/>
<path fill-rule="evenodd" clip-rule="evenodd" d="M35.6865 142.326C35.6865 138.247 35.6865 134.168 35.6865 130.102C48.2804 130.102 60.8742 130.102 73.4806 130.102C73.4806 134.168 73.4806 138.247 73.4806 142.326C60.8868 142.326 48.293 142.326 35.6865 142.326Z" fill="white" fill-opacity="0.15"/>
<path fill-rule="evenodd" clip-rule="evenodd" d="M62.6885 164.064C62.6885 159.997 62.6885 155.918 62.6885 151.852C75.2823 151.852 87.8761 151.852 100.47 151.852C100.47 155.918 100.47 159.997 100.47 164.064C87.8761 164.064 75.2823 164.064 62.6885 164.064Z" fill="white" fill-opacity="0.15"/>
<path fill-rule="evenodd" clip-rule="evenodd" d="M12.7187 164.064C12.7187 159.997 12.7187 155.918 12.7188 151.852C25.3126 151.852 37.9064 151.852 50.5129 151.852C50.5129 155.918 50.5129 159.997 50.5129 164.064C37.919 164.064 25.3252 164.064 12.7187 164.064Z" fill="white" fill-opacity="0.15"/>
<path fill-rule="evenodd" clip-rule="evenodd" d="M39.6094 185.81C39.6094 181.731 39.6094 177.665 39.6094 173.586C52.2032 173.586 64.7972 173.586 77.4036 173.586C77.4036 177.653 77.4036 181.731 77.4036 185.81C64.8098 185.81 52.2032 185.81 39.6094 185.81Z" fill="white" fill-opacity="0.15"/>
<path fill-rule="evenodd" clip-rule="evenodd" d="M39.6094 185.81C39.6094 181.731 39.6094 177.665 39.6094 173.586C52.2032 173.586 64.7972 173.586 77.4036 173.586C77.4036 177.653 77.4036 181.731 77.4036 185.81C64.8098 185.81 52.2032 185.81 39.6094 185.81Z" fill="white" fill-opacity="0.15"/>
<path fill-rule="evenodd" clip-rule="evenodd" d="M-10.3604 185.81C-10.3604 181.731 -10.3604 177.665 -10.3604 173.586C2.23352 173.586 14.8275 173.586 27.4213 173.586C27.4213 177.653 27.4213 181.731 27.4213 185.81C14.8275 185.81 2.23352 185.81 -10.3604 185.81Z" fill="white" fill-opacity="0.15"/>
<path fill-rule="evenodd" clip-rule="evenodd" d="M16.627 207.556C16.627 203.477 16.627 199.399 16.627 195.332C29.2208 195.332 41.8148 195.332 54.4086 195.332C54.4086 199.399 54.4086 203.477 54.4086 207.556C41.8148 207.556 29.2083 207.556 16.627 207.556Z" fill="white" fill-opacity="0.15"/>
<path fill-rule="evenodd" clip-rule="evenodd" d="M-33.3428 207.556C-33.3428 203.477 -33.3428 199.399 -33.3428 195.332C-20.7489 195.332 -8.15511 195.332 4.43876 195.332C4.43876 199.399 4.43876 203.477 4.43876 207.556C-8.15511 207.556 -20.7489 207.556 -33.3428 207.556Z" fill="white" fill-opacity="0.15"/>
<path fill-rule="evenodd" clip-rule="evenodd" d="M-6.36621 229.294L-6.36621 217.082L31.4279 217.082L31.4279 229.294L-6.36621 229.294Z" fill="white" fill-opacity="0.15"/>
<path fill-rule="evenodd" clip-rule="evenodd" d="M-6.36621 217.082L-6.36621 229.294L31.4279 229.294L31.4279 217.082L-6.36621 217.082Z" fill="white" fill-opacity="0.15"/>
<path fill-rule="evenodd" clip-rule="evenodd" d="M396.368 217.082L396.368 229.294L358.586 229.294L358.586 217.082L396.368 217.082Z" fill="white" fill-opacity="0.15"/>
<path fill-rule="evenodd" clip-rule="evenodd" d="M175.695 55.3765C175.695 51.3098 175.695 47.2311 175.695 43.1523C188.289 43.1523 200.883 43.1523 213.477 43.1523C213.477 47.219 213.477 51.3098 213.477 55.3765C200.883 55.3765 188.289 55.3765 175.695 55.3765Z" fill="white" fill-opacity="0.15"/>
<path fill-rule="evenodd" clip-rule="evenodd" d="M175.695 55.3765C175.695 51.3098 175.695 47.2311 175.695 43.1523C188.289 43.1523 200.883 43.1523 213.477 43.1523C213.477 47.219 213.477 51.3098 213.477 55.3765C200.883 55.3765 188.289 55.3765 175.695 55.3765Z" fill="white" fill-opacity="0.15"/>
<path fill-rule="evenodd" clip-rule="evenodd" d="M127.669 55.3765C127.669 51.3098 127.669 47.2311 127.669 43.1523C140.263 43.1523 152.857 43.1523 165.451 43.1523C165.451 47.219 165.451 51.3098 165.451 55.3765C152.857 55.3765 140.263 55.3765 127.669 55.3765Z" fill="white" fill-opacity="0.15"/>
<path fill-rule="evenodd" clip-rule="evenodd" d="M262.385 55.3765C262.385 51.3098 262.385 47.2311 262.385 43.1523C249.791 43.1523 237.197 43.1523 224.604 43.1523C224.604 47.219 224.604 51.3098 224.604 55.3765C237.197 55.3765 249.791 55.3765 262.385 55.3765Z" fill="white" fill-opacity="0.15"/>
<path fill-rule="evenodd" clip-rule="evenodd" d="M152.298 77.1226C152.298 73.0438 152.298 68.9772 152.298 64.8984C164.892 64.8984 177.486 64.8984 190.092 64.8984C190.092 68.9772 190.092 73.0438 190.092 77.1226C177.498 77.1226 164.904 77.1226 152.298 77.1226Z" fill="white" fill-opacity="0.15"/>
<path fill-rule="evenodd" clip-rule="evenodd" d="M104.679 77.1226C104.679 73.0438 104.679 68.9772 104.679 64.8984C117.273 64.8984 129.867 64.8984 142.46 64.8984C142.46 68.9772 142.46 73.0438 142.46 77.1226C129.867 77.1226 117.273 77.1226 104.679 77.1226Z" fill="white" fill-opacity="0.15"/>
<path fill-rule="evenodd" clip-rule="evenodd" d="M237.773 77.1226C237.773 73.0438 237.773 68.9772 237.773 64.8984C225.179 64.8984 212.585 64.8984 199.979 64.8984C199.979 68.9772 199.979 73.0438 199.979 77.1226C212.585 77.1226 225.179 77.1226 237.773 77.1226Z" fill="white" fill-opacity="0.15"/>
<path fill-rule="evenodd" clip-rule="evenodd" d="M285.391 77.1226C285.391 73.0438 285.391 68.9772 285.391 64.8984C272.797 64.8984 260.203 64.8984 247.609 64.8984C247.609 68.9772 247.609 73.0438 247.609 77.1226C260.203 77.1226 272.797 77.1226 285.391 77.1226Z" fill="white" fill-opacity="0.15"/>
<path fill-rule="evenodd" clip-rule="evenodd" d="M258.372 98.8452C258.372 94.7786 258.372 90.6998 258.372 86.6211C245.778 86.6211 233.184 86.6211 220.59 86.6211C220.59 90.6878 220.59 94.7665 220.59 98.8452C233.184 98.8452 245.778 98.8452 258.372 98.8452Z" fill="white" fill-opacity="0.15"/>
<path fill-rule="evenodd" clip-rule="evenodd" d="M308.354 98.8452C308.354 94.7786 308.354 90.6998 308.354 86.6211C295.76 86.6211 283.153 86.6211 270.56 86.6211C270.56 90.6878 270.56 94.7665 270.56 98.8452C283.153 98.8452 295.747 98.8452 308.354 98.8452Z" fill="white" fill-opacity="0.15"/>
<path fill-rule="evenodd" clip-rule="evenodd" d="M281.416 120.603C281.416 116.524 281.416 112.458 281.416 108.379C268.823 108.379 256.229 108.379 243.635 108.379C243.635 112.458 243.635 116.524 243.635 120.603C256.229 120.603 268.823 120.603 281.416 120.603Z" fill="white" fill-opacity="0.15"/>
<path fill-rule="evenodd" clip-rule="evenodd" d="M281.416 120.603C281.416 116.524 281.416 112.458 281.416 108.379C268.823 108.379 256.229 108.379 243.635 108.379C243.635 112.458 243.635 116.524 243.635 120.603C256.229 120.603 268.823 120.603 281.416 120.603Z" fill="white" fill-opacity="0.15"/>
<path fill-rule="evenodd" clip-rule="evenodd" d="M331.386 120.603C331.386 116.524 331.386 112.458 331.386 108.379C318.792 108.379 306.198 108.379 293.604 108.379C293.604 112.458 293.604 116.524 293.604 120.603C306.198 120.603 318.792 120.603 331.386 120.603Z" fill="white" fill-opacity="0.15"/>
<path fill-rule="evenodd" clip-rule="evenodd" d="M304.409 142.326C304.409 138.247 304.409 134.168 304.409 130.102C291.816 130.102 279.222 130.102 266.628 130.102C266.628 134.168 266.628 138.247 266.628 142.326C279.222 142.326 291.816 142.326 304.409 142.326Z" fill="white" fill-opacity="0.15"/>
<path fill-rule="evenodd" clip-rule="evenodd" d="M354.379 142.326C354.379 138.247 354.379 134.168 354.379 130.102C341.785 130.102 329.192 130.102 316.598 130.102C316.598 134.168 316.598 138.247 316.598 142.326C329.192 142.326 341.785 142.326 354.379 142.326Z" fill="white" fill-opacity="0.15"/>
<path fill-rule="evenodd" clip-rule="evenodd" d="M327.414 164.064C327.414 159.997 327.414 155.918 327.414 151.852C314.82 151.852 302.226 151.852 289.632 151.852C289.632 155.918 289.632 159.997 289.632 164.064C302.226 164.064 314.82 164.064 327.414 164.064Z" fill="white" fill-opacity="0.15"/>
<path fill-rule="evenodd" clip-rule="evenodd" d="M377.383 164.064C377.383 159.997 377.383 155.918 377.383 151.852C364.789 151.852 352.195 151.852 339.602 151.852C339.602 155.918 339.602 159.997 339.602 164.064C352.195 164.064 364.789 164.064 377.383 164.064Z" fill="white" fill-opacity="0.15"/>
<path fill-rule="evenodd" clip-rule="evenodd" d="M377.383 164.064C377.383 159.997 377.383 155.918 377.383 151.852C364.789 151.852 352.195 151.852 339.602 151.852C339.602 155.918 339.602 159.997 339.602 164.064C352.195 164.064 364.789 164.064 377.383 164.064Z" fill="white" fill-opacity="0.15"/>
<path fill-rule="evenodd" clip-rule="evenodd" d="M350.371 185.81C350.371 181.731 350.371 177.665 350.371 173.586C337.778 173.586 325.184 173.586 312.59 173.586C312.59 177.653 312.59 181.731 312.59 185.81C325.184 185.81 337.778 185.81 350.371 185.81Z" fill="white" fill-opacity="0.15"/>
<path fill-rule="evenodd" clip-rule="evenodd" d="M400.341 185.81C400.341 181.731 400.341 177.665 400.341 173.586C387.747 173.586 375.153 173.586 362.56 173.586C362.56 177.653 362.56 181.731 362.56 185.81C375.153 185.81 387.747 185.81 400.341 185.81Z" fill="white" fill-opacity="0.15"/>
<path fill-rule="evenodd" clip-rule="evenodd" d="M373.382 207.556C373.382 203.477 373.382 199.399 373.382 195.332C360.788 195.332 348.207 195.332 335.601 195.332C335.601 199.399 335.601 203.477 335.601 207.556C348.194 207.556 360.788 207.556 373.382 207.556Z" fill="white" fill-opacity="0.15"/>
<path fill-rule="evenodd" clip-rule="evenodd" d="M423.365 207.556C423.365 203.477 423.365 199.399 423.365 195.332C410.771 195.332 398.177 195.332 385.57 195.332C385.57 199.399 385.57 203.477 385.57 207.556C398.164 207.556 410.758 207.556 423.365 207.556Z" fill="white" fill-opacity="0.15"/>
<path fill-rule="evenodd" clip-rule="evenodd" d="M396.368 229.294L396.368 217.082L358.586 217.082L358.586 229.294L396.368 229.294Z" fill="white" fill-opacity="0.15"/>
<path fill-rule="evenodd" clip-rule="evenodd" d="M175.649 12.212L175.649 0L213.444 1.65203e-06L213.444 12.2121L175.649 12.212Z" fill="white" fill-opacity="0.15"/>
<path fill-rule="evenodd" clip-rule="evenodd" d="M175.649 12.212L175.649 0L213.444 1.65203e-06L213.444 12.2121L175.649 12.212Z" fill="white" fill-opacity="0.15"/>
</svg>
