<svg width="390" height="252" viewBox="0 0 390 252" fill="none" xmlns="http://www.w3.org/2000/svg">
<path fill-rule="evenodd" clip-rule="evenodd" d="M195.886 134.742L103.77 223.183L195.886 311.612L287.989 223.183L195.886 134.742Z" fill="#F9A11B" fill-opacity="0.2"/>
<path fill-rule="evenodd" clip-rule="evenodd" d="M201.955 33.6382L201.955 21.4141L239.737 21.4141L239.737 33.6382L201.955 33.6382Z" fill="#F9A11B" fill-opacity="0.4"/>
<path fill-rule="evenodd" clip-rule="evenodd" d="M151.984 33.6382L151.984 21.4141L189.778 21.4141L189.778 33.6382L151.984 33.6382Z" fill="#F9A11B" fill-opacity="0.4"/>
<path fill-rule="evenodd" clip-rule="evenodd" d="M132.927 98.8491C132.927 94.7825 132.927 90.7037 132.927 86.625C145.521 86.625 158.114 86.625 170.708 86.625C170.708 90.6917 170.708 94.7704 170.708 98.8491C158.114 98.8491 145.508 98.8491 132.927 98.8491Z" fill="#F9A11B" fill-opacity="0.4"/>
<path fill-rule="evenodd" clip-rule="evenodd" d="M82.957 98.8491C82.957 94.7825 82.957 90.7037 82.957 86.625C95.5509 86.625 108.145 86.625 120.739 86.625C120.739 90.6917 120.739 94.7704 120.739 98.8491C108.145 98.8491 95.5509 98.8491 82.957 98.8491Z" fill="#F9A11B" fill-opacity="0.4"/>
<path fill-rule="evenodd" clip-rule="evenodd" d="M109.968 120.599C109.968 116.52 109.968 112.454 109.968 108.375C122.562 108.375 135.155 108.375 147.749 108.375C147.749 112.454 147.749 116.52 147.749 120.599C135.155 120.599 122.562 120.599 109.968 120.599Z" fill="#F9A11B" fill-opacity="0.4"/>
<path fill-rule="evenodd" clip-rule="evenodd" d="M59.998 120.599C59.998 116.52 59.998 112.454 59.998 108.375C72.5919 108.375 85.1984 108.375 97.7923 108.375C97.7923 112.454 97.7923 116.52 97.7923 120.599C85.1984 120.599 72.6045 120.599 59.998 120.599Z" fill="#F9A11B" fill-opacity="0.4"/>
<path fill-rule="evenodd" clip-rule="evenodd" d="M59.998 120.599C59.998 116.52 59.998 112.454 59.998 108.375C72.5919 108.375 85.1984 108.375 97.7923 108.375C97.7923 112.454 97.7923 116.52 97.7923 120.599C85.1984 120.599 72.6045 120.599 59.998 120.599Z" fill="#F9A11B" fill-opacity="0.4"/>
<path fill-rule="evenodd" clip-rule="evenodd" d="M86.9922 142.326C86.9922 138.247 86.9922 134.168 86.9922 130.102C99.5861 130.102 112.18 130.102 124.774 130.102C124.774 134.168 124.774 138.247 124.774 142.326C112.18 142.326 99.5861 142.326 86.9922 142.326Z" fill="#F9A11B" fill-opacity="0.4"/>
<path fill-rule="evenodd" clip-rule="evenodd" d="M37.0225 142.326C37.0225 138.247 37.0225 134.168 37.0225 130.102C49.6163 130.102 62.2101 130.102 74.8166 130.102C74.8166 134.168 74.8166 138.247 74.8166 142.326C62.2227 142.326 49.6289 142.326 37.0225 142.326Z" fill="#F9A11B" fill-opacity="0.4"/>
<path fill-rule="evenodd" clip-rule="evenodd" d="M64.0244 164.064C64.0244 159.997 64.0244 155.918 64.0244 151.852C76.6183 151.852 89.2121 151.852 101.806 151.852C101.806 155.918 101.806 159.997 101.806 164.064C89.2121 164.064 76.6183 164.064 64.0244 164.064Z" fill="#F9A11B" fill-opacity="0.4"/>
<path fill-rule="evenodd" clip-rule="evenodd" d="M14.0547 164.064C14.0547 159.997 14.0547 155.918 14.0547 151.852C26.6486 151.852 39.2424 151.852 51.8488 151.852C51.8488 155.918 51.8488 159.997 51.8488 164.064C39.2549 164.064 26.6611 164.064 14.0547 164.064Z" fill="#F9A11B" fill-opacity="0.4"/>
<path fill-rule="evenodd" clip-rule="evenodd" d="M40.9453 185.81C40.9453 181.731 40.9453 177.665 40.9453 173.586C53.5392 173.586 66.1331 173.586 78.7396 173.586C78.7396 177.653 78.7396 181.731 78.7396 185.81C66.1457 185.81 53.5392 185.81 40.9453 185.81Z" fill="#F9A11B" fill-opacity="0.4"/>
<path fill-rule="evenodd" clip-rule="evenodd" d="M40.9453 185.81C40.9453 181.731 40.9453 177.665 40.9453 173.586C53.5392 173.586 66.1331 173.586 78.7396 173.586C78.7396 177.653 78.7396 181.731 78.7396 185.81C66.1457 185.81 53.5392 185.81 40.9453 185.81Z" fill="#F9A11B" fill-opacity="0.4"/>
<path fill-rule="evenodd" clip-rule="evenodd" d="M-9.02441 185.81C-9.02441 181.731 -9.02441 177.665 -9.02441 173.586C3.56946 173.586 16.1634 173.586 28.7573 173.586C28.7573 177.653 28.7573 181.731 28.7573 185.81C16.1634 185.81 3.56946 185.81 -9.02441 185.81Z" fill="#F9A11B" fill-opacity="0.4"/>
<path fill-rule="evenodd" clip-rule="evenodd" d="M17.9629 207.56C17.9629 203.481 17.9629 199.403 17.9629 195.336C30.5568 195.336 43.1507 195.336 55.7446 195.336C55.7446 199.403 55.7446 203.481 55.7446 207.56C43.1507 207.56 30.5442 207.56 17.9629 207.56Z" fill="#F9A11B" fill-opacity="0.4"/>
<path fill-rule="evenodd" clip-rule="evenodd" d="M-32.0068 207.56C-32.0068 203.481 -32.0068 199.403 -32.0068 195.336C-19.413 195.336 -6.81917 195.336 5.7747 195.336C5.7747 199.403 5.7747 203.481 5.7747 207.56C-6.81917 207.56 -19.413 207.56 -32.0068 207.56Z" fill="#F9A11B" fill-opacity="0.4"/>
<path fill-rule="evenodd" clip-rule="evenodd" d="M-5.03027 229.29L-5.03027 217.078L32.7638 217.078L32.7638 229.29L-5.03027 229.29Z" fill="#F9A11B" fill-opacity="0.4"/>
<path fill-rule="evenodd" clip-rule="evenodd" d="M17.9629 238.82C17.9629 242.887 17.9629 246.966 17.9629 251.044C30.5568 251.044 43.1507 251.044 55.7446 251.044C55.7446 246.966 55.7446 242.899 55.7446 238.82C43.1507 238.82 30.5442 238.82 17.9629 238.82Z" fill="#F9A11B" fill-opacity="0.4"/>
<path fill-rule="evenodd" clip-rule="evenodd" d="M-32.0068 238.82C-32.0068 242.887 -32.0068 246.966 -32.0068 251.044C-19.413 251.044 -6.81917 251.044 5.7747 251.044C5.7747 246.966 5.7747 242.899 5.7747 238.82C-6.81917 238.82 -19.413 238.82 -32.0068 238.82Z" fill="#F9A11B" fill-opacity="0.4"/>
<path fill-rule="evenodd" clip-rule="evenodd" d="M-5.03027 217.078L-5.03027 229.29L32.7638 229.29L32.7638 217.078L-5.03027 217.078Z" fill="#F9A11B" fill-opacity="0.4"/>
<path fill-rule="evenodd" clip-rule="evenodd" d="M374.718 238.813C374.718 242.879 374.718 246.958 374.718 251.037C362.124 251.037 349.543 251.037 336.937 251.037C336.937 246.958 336.937 242.891 336.937 238.812C349.53 238.813 362.124 238.813 374.718 238.813Z" fill="#F9A11B" fill-opacity="0.4"/>
<path fill-rule="evenodd" clip-rule="evenodd" d="M424.701 238.813C424.701 242.879 424.701 246.958 424.701 251.037C412.107 251.037 399.513 251.037 386.906 251.037C386.906 246.958 386.906 242.891 386.906 238.812C399.5 238.813 412.094 238.813 424.701 238.813Z" fill="#F9A11B" fill-opacity="0.4"/>
<path fill-rule="evenodd" clip-rule="evenodd" d="M397.704 217.078L397.704 229.29L359.922 229.29L359.922 217.078L397.704 217.078Z" fill="#F9A11B" fill-opacity="0.4"/>
<path fill-rule="evenodd" clip-rule="evenodd" d="M177.031 55.3804C177.031 51.3137 177.031 47.235 177.031 43.1562C189.625 43.1563 202.219 43.1563 214.813 43.1563C214.813 47.2229 214.813 51.3137 214.813 55.3804C202.219 55.3804 189.625 55.3804 177.031 55.3804Z" fill="#F9A11B" fill-opacity="0.4"/>
<path fill-rule="evenodd" clip-rule="evenodd" d="M177.031 55.3804C177.031 51.3137 177.031 47.235 177.031 43.1562C189.625 43.1563 202.219 43.1563 214.813 43.1563C214.813 47.2229 214.813 51.3137 214.813 55.3804C202.219 55.3804 189.625 55.3804 177.031 55.3804Z" fill="#F9A11B" fill-opacity="0.4"/>
<path fill-rule="evenodd" clip-rule="evenodd" d="M129.005 55.3804C129.005 51.3137 129.005 47.235 129.005 43.1562C141.599 43.1563 154.193 43.1563 166.787 43.1563C166.787 47.2229 166.787 51.3137 166.787 55.3804C154.193 55.3804 141.599 55.3804 129.005 55.3804Z" fill="#F9A11B" fill-opacity="0.4"/>
<path fill-rule="evenodd" clip-rule="evenodd" d="M263.721 55.3804C263.721 51.3137 263.721 47.235 263.721 43.1563C251.127 43.1563 238.533 43.1563 225.939 43.1562C225.939 47.2229 225.939 51.3137 225.939 55.3804C238.533 55.3804 251.127 55.3804 263.721 55.3804Z" fill="#F9A11B" fill-opacity="0.4"/>
<path fill-rule="evenodd" clip-rule="evenodd" d="M153.634 77.1226C153.634 73.0438 153.634 68.9772 153.634 64.8984C166.228 64.8984 178.822 64.8984 191.428 64.8984C191.428 68.9772 191.428 73.0438 191.428 77.1226C178.834 77.1226 166.24 77.1226 153.634 77.1226Z" fill="#F9A11B" fill-opacity="0.4"/>
<path fill-rule="evenodd" clip-rule="evenodd" d="M106.015 77.1226C106.015 73.0438 106.015 68.9772 106.015 64.8984C118.609 64.8984 131.202 64.8984 143.796 64.8984C143.796 68.9772 143.796 73.0438 143.796 77.1226C131.202 77.1226 118.609 77.1226 106.015 77.1226Z" fill="#F9A11B" fill-opacity="0.4"/>
<path fill-rule="evenodd" clip-rule="evenodd" d="M239.109 77.1226C239.109 73.0438 239.109 68.9772 239.109 64.8984C226.515 64.8984 213.921 64.8984 201.314 64.8984C201.314 68.9772 201.314 73.0438 201.314 77.1226C213.921 77.1226 226.515 77.1226 239.109 77.1226Z" fill="#F9A11B" fill-opacity="0.4"/>
<path fill-rule="evenodd" clip-rule="evenodd" d="M286.727 77.1226C286.727 73.0438 286.727 68.9772 286.727 64.8984C274.133 64.8984 261.539 64.8984 248.945 64.8984C248.945 68.9772 248.945 73.0438 248.945 77.1226C261.539 77.1226 274.133 77.1226 286.727 77.1226Z" fill="#F9A11B" fill-opacity="0.4"/>
<path fill-rule="evenodd" clip-rule="evenodd" d="M259.707 98.8491C259.707 94.7825 259.707 90.7037 259.707 86.625C247.114 86.625 234.52 86.625 221.926 86.625C221.926 90.6917 221.926 94.7704 221.926 98.8491C234.52 98.8491 247.114 98.8491 259.707 98.8491Z" fill="#F9A11B" fill-opacity="0.4"/>
<path fill-rule="evenodd" clip-rule="evenodd" d="M309.69 98.8491C309.69 94.7825 309.69 90.7037 309.69 86.625C297.096 86.625 284.489 86.625 271.896 86.625C271.896 90.6917 271.896 94.7704 271.896 98.8491C284.489 98.8491 297.083 98.8491 309.69 98.8491Z" fill="#F9A11B" fill-opacity="0.4"/>
<path fill-rule="evenodd" clip-rule="evenodd" d="M282.752 120.599C282.752 116.52 282.752 112.454 282.752 108.375C270.159 108.375 257.565 108.375 244.971 108.375C244.971 112.454 244.971 116.52 244.971 120.599C257.565 120.599 270.159 120.599 282.752 120.599Z" fill="#F9A11B" fill-opacity="0.4"/>
<path fill-rule="evenodd" clip-rule="evenodd" d="M282.752 120.599C282.752 116.52 282.752 112.454 282.752 108.375C270.159 108.375 257.565 108.375 244.971 108.375C244.971 112.454 244.971 116.52 244.971 120.599C257.565 120.599 270.159 120.599 282.752 120.599Z" fill="#F9A11B" fill-opacity="0.4"/>
<path fill-rule="evenodd" clip-rule="evenodd" d="M332.722 120.599C332.722 116.52 332.722 112.454 332.722 108.375C320.128 108.375 307.534 108.375 294.94 108.375C294.94 112.454 294.94 116.52 294.94 120.599C307.534 120.599 320.128 120.599 332.722 120.599Z" fill="#F9A11B" fill-opacity="0.4"/>
<path fill-rule="evenodd" clip-rule="evenodd" d="M305.745 142.326C305.745 138.247 305.745 134.168 305.745 130.102C293.152 130.102 280.558 130.102 267.964 130.102C267.964 134.168 267.964 138.247 267.964 142.326C280.558 142.326 293.152 142.326 305.745 142.326Z" fill="#F9A11B" fill-opacity="0.4"/>
<path fill-rule="evenodd" clip-rule="evenodd" d="M355.715 142.326C355.715 138.247 355.715 134.168 355.715 130.102C343.121 130.102 330.527 130.102 317.934 130.102C317.934 134.168 317.934 138.247 317.934 142.326C330.527 142.326 343.121 142.326 355.715 142.326Z" fill="#F9A11B" fill-opacity="0.4"/>
<path fill-rule="evenodd" clip-rule="evenodd" d="M328.749 164.064C328.749 159.997 328.749 155.918 328.749 151.852C316.156 151.852 303.562 151.852 290.968 151.852C290.968 155.918 290.968 159.997 290.968 164.064C303.562 164.064 316.156 164.064 328.749 164.064Z" fill="#F9A11B" fill-opacity="0.4"/>
<path fill-rule="evenodd" clip-rule="evenodd" d="M378.719 164.064C378.719 159.997 378.719 155.918 378.719 151.852C366.125 151.852 353.531 151.852 340.938 151.852C340.937 155.918 340.937 159.997 340.937 164.064C353.531 164.064 366.125 164.064 378.719 164.064Z" fill="#F9A11B" fill-opacity="0.4"/>
<path fill-rule="evenodd" clip-rule="evenodd" d="M378.719 164.064C378.719 159.997 378.719 155.918 378.719 151.852C366.125 151.852 353.531 151.852 340.938 151.852C340.937 155.918 340.937 159.997 340.937 164.064C353.531 164.064 366.125 164.064 378.719 164.064Z" fill="#F9A11B" fill-opacity="0.4"/>
<path fill-rule="evenodd" clip-rule="evenodd" d="M351.707 185.81C351.707 181.731 351.707 177.665 351.707 173.586C339.113 173.586 326.52 173.586 313.926 173.586C313.926 177.653 313.926 181.731 313.926 185.81C326.52 185.81 339.113 185.81 351.707 185.81Z" fill="#F9A11B" fill-opacity="0.4"/>
<path fill-rule="evenodd" clip-rule="evenodd" d="M401.677 185.81C401.677 181.731 401.677 177.665 401.677 173.586C389.083 173.586 376.489 173.586 363.896 173.586C363.896 177.653 363.896 181.731 363.896 185.81C376.489 185.81 389.083 185.81 401.677 185.81Z" fill="#F9A11B" fill-opacity="0.4"/>
<path fill-rule="evenodd" clip-rule="evenodd" d="M374.718 207.56C374.718 203.481 374.718 199.403 374.718 195.336C362.124 195.336 349.543 195.336 336.937 195.336C336.937 199.403 336.937 203.481 336.937 207.56C349.53 207.56 362.124 207.56 374.718 207.56Z" fill="#F9A11B" fill-opacity="0.4"/>
<path fill-rule="evenodd" clip-rule="evenodd" d="M424.701 207.56C424.701 203.481 424.701 199.403 424.701 195.336C412.107 195.336 399.513 195.336 386.906 195.336C386.906 199.403 386.906 203.481 386.906 207.56C399.5 207.56 412.094 207.56 424.701 207.56Z" fill="#F9A11B" fill-opacity="0.4"/>
<path fill-rule="evenodd" clip-rule="evenodd" d="M397.704 229.29L397.704 217.078L359.922 217.078L359.922 229.29L397.704 229.29Z" fill="#F9A11B" fill-opacity="0.4"/>
<path fill-rule="evenodd" clip-rule="evenodd" d="M176.985 12.212L176.985 0L214.779 1.65203e-06L214.779 12.2121L176.985 12.212Z" fill="#F9A11B" fill-opacity="0.4"/>
<path fill-rule="evenodd" clip-rule="evenodd" d="M176.985 12.212L176.985 0L214.779 1.65203e-06L214.779 12.2121L176.985 12.212Z" fill="#F9A11B" fill-opacity="0.4"/>
</svg>
