<svg width="10" height="11" viewBox="0 0 10 11" fill="none" xmlns="http://www.w3.org/2000/svg">
<path d="M4.99967 9.66537C7.30086 9.66537 9.16634 7.79988 9.16634 5.4987C9.16634 3.19751 7.30086 1.33203 4.99967 1.33203C2.69849 1.33203 0.833008 3.19751 0.833008 5.4987C0.833008 7.79988 2.69849 9.66537 4.99967 9.66537Z" stroke="white" stroke-width="0.5" stroke-miterlimit="10" stroke-linecap="round" stroke-linejoin="round"/>
<path d="M4.12012 2.92969V3.76302" stroke="white" stroke-width="0.5" stroke-miterlimit="10" stroke-linecap="round" stroke-linejoin="round"/>
<path d="M5.87891 2.92969V3.76302" stroke="white" stroke-width="0.5" stroke-miterlimit="10" stroke-linecap="round" stroke-linejoin="round"/>
<path d="M3.13672 4.72656H6.86172" stroke="white" stroke-width="0.5" stroke-miterlimit="10" stroke-linecap="round" stroke-linejoin="round"/>
<path d="M5.62467 7.86458H4.37467C3.33301 7.86458 2.70801 7.11458 2.70801 6.19792V4.94792C2.70801 4.03125 3.33301 3.28125 4.37467 3.28125H5.62467C6.66634 3.28125 7.29134 4.03125 7.29134 4.94792V6.19792C7.29134 7.11458 6.66634 7.86458 5.62467 7.86458Z" stroke="white" stroke-width="0.5" stroke-miterlimit="10" stroke-linecap="round" stroke-linejoin="round"/>
</svg>
