<svg width="32" height="32" viewBox="0 0 32 32" fill="none" xmlns="http://www.w3.org/2000/svg">
<rect width="32" height="32" rx="6" fill="#C91022" fill-opacity="0.07"/>
<path d="M16 26C21.5228 26 26 21.5228 26 16C26 10.4772 21.5228 6 16 6C10.4772 6 6 10.4772 6 16C6 21.5228 10.4772 26 16 26Z" stroke="#C91022" stroke-width="1.5" stroke-miterlimit="10" stroke-linecap="round" stroke-linejoin="round"/>
<path d="M13.8906 9.82812V11.8281" stroke="#C91022" stroke-width="1.5" stroke-miterlimit="10" stroke-linecap="round" stroke-linejoin="round"/>
<path d="M18.1094 9.82812V11.8281" stroke="#C91022" stroke-width="1.5" stroke-miterlimit="10" stroke-linecap="round" stroke-linejoin="round"/>
<path d="M11.5312 14.1367H20.4713" stroke="#C91022" stroke-width="1.5" stroke-miterlimit="10" stroke-linecap="round" stroke-linejoin="round"/>
<path d="M17.5 21.668H14.5C12 21.668 10.5 19.868 10.5 17.668V14.668C10.5 12.468 12 10.668 14.5 10.668H17.5C20 10.668 21.5 12.468 21.5 14.668V17.668C21.5 19.868 20 21.668 17.5 21.668Z" stroke="#C91022" stroke-width="1.5" stroke-miterlimit="10" stroke-linecap="round" stroke-linejoin="round"/>
</svg>
