<svg width="32" height="32" viewBox="0 0 32 32" fill="none" xmlns="http://www.w3.org/2000/svg">
<g clip-path="url(#clip0_2609_3059)">
<path d="M16 0C7.17756 0 0 7.17756 0 16C0 24.8224 7.17756 32 16 32C24.8224 32 32 24.8224 32 16C32 7.17756 24.8224 0 16 0ZM16 30.5C8.00469 30.5 1.5 23.9953 1.5 16C1.5 8.00469 8.00469 1.5 16 1.5C23.9953 1.5 30.5 8.00469 30.5 16C30.5 23.9953 23.9953 30.5 16 30.5ZM24.3679 18.9103C24.3678 18.9103 24.3678 18.9103 24.3679 18.9103L21.4286 17.2133C20.9785 16.9535 20.4533 16.8846 19.9499 17.0195C19.4464 17.1544 19.026 17.4766 18.7662 17.9267C18.6154 18.1879 18.3514 18.5164 17.9497 18.5986C17.5833 18.6735 17.2599 18.6008 16.9609 18.3764C15.8562 17.5474 14.4528 16.1439 13.6236 15.0392C13.3993 14.7402 13.3266 14.4167 13.4015 14.0504C13.4836 13.6486 13.8122 13.3846 14.0734 13.2339C15.0041 12.6964 15.3241 11.5021 14.7867 10.5714L13.0898 7.63206C12.6037 6.79031 11.5942 6.43725 10.6896 6.79244L10.6544 6.80625C9.24981 7.35769 8.22269 7.78087 7.79794 8.20562C7.02637 8.97725 6.24487 10.4131 6.90369 12.8717C8.18325 17.6473 14.3527 23.8167 19.1283 25.0964C19.7767 25.2701 20.3539 25.3437 20.8667 25.3437C22.2981 25.3437 23.2264 24.7703 23.7945 24.2021C24.2192 23.7774 24.6423 22.7505 25.1936 21.3463L25.2077 21.3105C25.5627 20.4058 25.2096 19.3964 24.3679 18.9103ZM23.8113 20.7623L23.7972 20.7981C23.5312 21.4756 22.9778 22.8853 22.7336 23.1414C22.0177 23.8574 20.9352 24.0276 19.5163 23.6475C15.2374 22.5009 9.49887 16.7624 8.35238 12.4835C7.97219 11.0647 8.14244 9.98219 8.85769 9.267C9.11463 9.02213 10.5248 8.46856 11.2024 8.20256L11.2376 8.18869C11.2938 8.16656 11.3511 8.15606 11.4071 8.15606C11.562 8.15606 11.7069 8.23744 11.7905 8.38212L13.4875 11.3214C13.6112 11.5359 13.5376 11.811 13.3232 11.9347C12.5772 12.3654 12.0831 13.0101 11.9318 13.7499C11.7705 14.5385 11.9406 15.2956 12.4237 15.9395C13.3418 17.1628 14.8373 18.6582 16.0604 19.5761C16.7042 20.0592 17.4614 20.2294 18.2501 20.0681C18.9899 19.9168 19.6345 19.4226 20.0652 18.6766C20.1247 18.5736 20.2216 18.4996 20.3381 18.4684C20.4544 18.4373 20.5754 18.4527 20.6786 18.5123L23.6178 20.2093C23.8149 20.3232 23.8944 20.5506 23.8113 20.7623Z" fill="#C91022"/>
<path d="M16 1C13.0333 1 10.1332 1.87973 7.66645 3.52796C5.19972 5.17618 3.27713 7.51886 2.14181 10.2597C1.0065 13.0006 0.709449 16.0166 1.28823 18.9264C1.86701 21.8361 3.29562 24.5088 5.3934 26.6066C7.49119 28.7044 10.1639 30.133 13.0737 30.7118C15.9834 31.2906 18.9994 30.9935 21.7403 29.8582C24.4812 28.7229 26.8238 26.8003 28.4721 24.3336C30.1203 21.8668 31 18.9667 31 16C31 12.0218 29.4197 8.20644 26.6066 5.3934C23.7936 2.58035 19.9783 1 16 1ZM16.643 10.214C18.0065 10.2156 19.3137 10.7579 20.2779 11.7221C21.2421 12.6863 21.7844 13.9935 21.786 15.357H20.5C20.4989 14.3344 20.0922 13.354 19.3691 12.6309C18.646 11.9078 17.6656 11.5011 16.643 11.5V10.214ZM20.808 25C20.769 25 16.908 24.934 11.943 20.057C7.06601 15.094 7.00001 11.231 7.00001 11.192C7.00001 10.711 10 7 10.663 7C10.893 7 11.072 7.156 11.268 7.39C11.74 7.952 13.827 11.246 13.731 11.795C13.685 12.053 13.466 12.249 12.838 12.776C12.5286 13.0193 12.239 13.2868 11.972 13.576C12.0999 14.1052 12.2898 14.6174 12.538 15.102C13.4625 17.0029 14.9986 18.5383 16.9 19.462C17.3846 19.7102 17.8968 19.9001 18.426 20.028C18.7152 19.761 18.9827 19.4714 19.226 19.162C19.753 18.534 19.949 18.315 20.207 18.269C20.756 18.169 24.05 20.26 24.612 20.732C24.846 20.932 25.002 21.107 25.002 21.337C25 22 21.289 25 20.808 25ZM23.714 15.357C23.7119 13.4823 22.9662 11.685 21.6406 10.3594C20.315 9.03378 18.5177 8.28812 16.643 8.286V7C18.8586 7.00265 20.9827 7.88396 22.5494 9.45063C24.116 11.0173 24.9974 13.1414 25 15.357H23.714Z" fill="#C91022"/>
</g>
<defs>
<clipPath id="clip0_2609_3059">
<rect width="32" height="32" fill="white"/>
</clipPath>
</defs>
</svg>
