<svg width="358" height="56" viewBox="0 0 358 56" fill="none" xmlns="http://www.w3.org/2000/svg">
<g clip-path="url(#clip0_2128_1468)">
<rect width="358" height="56" rx="8" fill="url(#paint0_linear_2128_1468)"/>
<path fill-rule="evenodd" clip-rule="evenodd" d="M59.7119 0.804688H58.4043V-3.07687H59.7119V0.804688Z" fill="white" fill-opacity="0.15"/>
<path fill-rule="evenodd" clip-rule="evenodd" d="M26.415 -1.13636L35.8756 8.32422L45.3349 -1.13636L35.8756 -10.5957L26.415 -1.13636Z" fill="white" fill-opacity="0.1"/>
<path fill-rule="evenodd" clip-rule="evenodd" d="M15.6006 3.37109H14.293V-0.510463H15.6006V3.37109Z" fill="white" fill-opacity="0.15"/>
<path fill-rule="evenodd" clip-rule="evenodd" d="M22.5752 5.32422C22.1402 5.32422 21.7039 5.32422 21.2676 5.32422C21.2676 4.03079 21.2676 2.73738 21.2676 1.44395C21.7026 1.44395 22.1389 1.44395 22.5752 1.44395C22.5752 2.73738 22.5752 4.03209 22.5752 5.32422Z" fill="white" fill-opacity="0.15"/>
<path fill-rule="evenodd" clip-rule="evenodd" d="M22.5752 10.457C22.1402 10.457 21.7039 10.457 21.2676 10.457C21.2676 9.16361 21.2676 7.87019 21.2676 6.57677C21.7026 6.57677 22.1389 6.57677 22.5752 6.57677C22.5752 7.87019 22.5752 9.16361 22.5752 10.457Z" fill="white" fill-opacity="0.15"/>
<path fill-rule="evenodd" clip-rule="evenodd" d="M24.9014 7.69141C24.4651 7.69141 24.0301 7.69141 23.5938 7.69141C23.5938 6.39798 23.5938 5.10457 23.5938 3.81114C24.0301 3.81114 24.4651 3.81114 24.9014 3.81114C24.9014 5.10457 24.9014 6.39798 24.9014 7.69141Z" fill="white" fill-opacity="0.15"/>
<path fill-rule="evenodd" clip-rule="evenodd" d="M24.9014 12.8242C24.4651 12.8242 24.0301 12.8242 23.5938 12.8242C23.5938 11.5308 23.5938 10.2361 23.5938 8.94265C24.0301 8.94265 24.4651 8.94265 24.9014 8.94265C24.9014 10.2361 24.9014 11.5295 24.9014 12.8242Z" fill="white" fill-opacity="0.15"/>
<path fill-rule="evenodd" clip-rule="evenodd" d="M27.2256 10.043C26.7893 10.043 26.353 10.043 25.918 10.043C25.918 8.74954 25.918 7.45611 25.918 6.16269C26.353 6.16269 26.7893 6.16269 27.2256 6.16269C27.2256 7.45611 27.2256 8.74954 27.2256 10.043Z" fill="white" fill-opacity="0.15"/>
<path fill-rule="evenodd" clip-rule="evenodd" d="M27.2256 15.1758C26.7893 15.1758 26.353 15.1758 25.918 15.1758C25.918 13.8824 25.918 12.5889 25.918 11.2942C26.353 11.2942 26.7893 11.2942 27.2256 11.2942C27.2256 12.5876 27.2256 13.8811 27.2256 15.1758Z" fill="white" fill-opacity="0.15"/>
<path fill-rule="evenodd" clip-rule="evenodd" d="M29.5524 12.4023C29.1174 12.4023 28.6811 12.4023 28.2461 12.4023C28.2461 11.1089 28.2461 9.8155 28.2461 8.52208C28.6811 8.52208 29.1174 8.52208 29.5524 8.52208C29.5524 9.8155 29.5524 11.1089 29.5524 12.4023Z" fill="white" fill-opacity="0.15"/>
<path fill-rule="evenodd" clip-rule="evenodd" d="M29.5524 17.5352C29.1174 17.5352 28.6811 17.5352 28.2461 17.5352C28.2461 16.2417 28.2461 14.9483 28.2461 13.6536C28.6811 13.6536 29.1174 13.6536 29.5524 13.6536C29.5524 14.947 29.5524 16.2404 29.5524 17.5352Z" fill="white" fill-opacity="0.15"/>
<path fill-rule="evenodd" clip-rule="evenodd" d="M31.8779 14.7773C31.4416 14.7773 31.0066 14.7773 30.5703 14.7773C30.5703 13.4839 30.5703 12.1905 30.5703 10.8958C31.0053 10.8958 31.4416 10.8958 31.8779 10.8958C31.8779 12.1892 31.8779 13.4839 31.8779 14.7773Z" fill="white" fill-opacity="0.15"/>
<path fill-rule="evenodd" clip-rule="evenodd" d="M31.8779 19.9102C31.4416 19.9102 31.0066 19.9102 30.5703 19.9102C30.5703 18.6167 30.5703 17.3233 30.5703 16.0299C31.0053 16.0299 31.4416 16.0299 31.8779 16.0299C31.8779 17.3233 31.8779 18.6167 31.8779 19.9102Z" fill="white" fill-opacity="0.15"/>
<path fill-rule="evenodd" clip-rule="evenodd" d="M34.2041 17.1367C33.7678 17.1367 33.3315 17.1367 32.8965 17.1367C32.8965 15.8433 32.8965 14.5499 32.8965 13.2564C33.3315 13.2564 33.7678 13.2564 34.2041 13.2564C34.2041 14.5499 34.2041 15.8446 34.2041 17.1367Z" fill="white" fill-opacity="0.15"/>
<path fill-rule="evenodd" clip-rule="evenodd" d="M34.2041 22.2695C33.7678 22.2695 33.3315 22.2695 32.8965 22.2695C32.8965 20.9761 32.8965 19.6827 32.8965 18.3893C33.3315 18.3893 33.7678 18.3893 34.2041 18.3893C34.2041 19.6827 34.2041 20.9761 34.2041 22.2695Z" fill="white" fill-opacity="0.15"/>
<path fill-rule="evenodd" clip-rule="evenodd" d="M36.528 19.4961H35.2217V15.6145H36.528V19.4961Z" fill="white" fill-opacity="0.15"/>
<path fill-rule="evenodd" clip-rule="evenodd" d="M36.528 24.6289H35.2217V20.7486H36.528V24.6289Z" fill="white" fill-opacity="0.15"/>
<path fill-rule="evenodd" clip-rule="evenodd" d="M56.1504 3.37109H57.458V-0.510463H56.1504V3.37109Z" fill="white" fill-opacity="0.15"/>
<path fill-rule="evenodd" clip-rule="evenodd" d="M49.1729 5.32422C49.6092 5.32422 50.0442 5.32422 50.4805 5.32422C50.4805 4.03079 50.4805 2.73738 50.4805 1.44395C50.0455 1.44395 49.6092 1.44395 49.1729 1.44395C49.1729 2.73738 49.1729 4.03209 49.1729 5.32422Z" fill="white" fill-opacity="0.15"/>
<path fill-rule="evenodd" clip-rule="evenodd" d="M49.1729 10.457C49.6092 10.457 50.0442 10.457 50.4805 10.457C50.4805 9.16361 50.4805 7.87019 50.4805 6.57677C50.0455 6.57677 49.6092 6.57677 49.1729 6.57677C49.1729 7.87019 49.1729 9.16361 49.1729 10.457Z" fill="white" fill-opacity="0.15"/>
<path fill-rule="evenodd" clip-rule="evenodd" d="M46.8486 7.69141C47.2849 7.69141 47.72 7.69141 48.1563 7.69141C48.1563 6.39798 48.1563 5.10457 48.1563 3.81114C47.72 3.81114 47.2849 3.81114 46.8486 3.81114C46.8486 5.10457 46.8486 6.39798 46.8486 7.69141Z" fill="white" fill-opacity="0.15"/>
<path fill-rule="evenodd" clip-rule="evenodd" d="M46.8486 12.8242C47.2849 12.8242 47.72 12.8242 48.1563 12.8242C48.1563 11.5308 48.1563 10.2361 48.1563 8.94265C47.72 8.94265 47.2849 8.94265 46.8486 8.94265C46.8486 10.2361 46.8486 11.5295 46.8486 12.8242Z" fill="white" fill-opacity="0.15"/>
<path fill-rule="evenodd" clip-rule="evenodd" d="M44.5225 10.043C44.9575 10.043 45.3938 10.043 45.8301 10.043C45.8301 8.74954 45.8301 7.45611 45.8301 6.16269C45.3938 6.16269 44.9575 6.16269 44.5225 6.16269C44.5225 7.45611 44.5225 8.74954 44.5225 10.043Z" fill="white" fill-opacity="0.15"/>
<path fill-rule="evenodd" clip-rule="evenodd" d="M44.5225 15.1758C44.9575 15.1758 45.3938 15.1758 45.8301 15.1758C45.8301 13.8824 45.8301 12.5889 45.8301 11.2942C45.3938 11.2942 44.9575 11.2942 44.5225 11.2942C44.5225 12.5876 44.5225 13.8811 44.5225 15.1758Z" fill="white" fill-opacity="0.15"/>
<path fill-rule="evenodd" clip-rule="evenodd" d="M42.1982 12.4023C42.6333 12.4023 43.0696 12.4023 43.5059 12.4023C43.5059 11.1089 43.5059 9.8155 43.5059 8.52208C43.0696 8.52208 42.6345 8.52208 42.1982 8.52208C42.1982 9.8155 42.1982 11.1089 42.1982 12.4023Z" fill="white" fill-opacity="0.15"/>
<path fill-rule="evenodd" clip-rule="evenodd" d="M42.1982 17.5352C42.6333 17.5352 43.0696 17.5352 43.5059 17.5352C43.5059 16.2417 43.5059 14.9483 43.5059 13.6536C43.0696 13.6536 42.6345 13.6536 42.1982 13.6536C42.1982 14.947 42.1982 16.2404 42.1982 17.5352Z" fill="white" fill-opacity="0.15"/>
<path fill-rule="evenodd" clip-rule="evenodd" d="M39.8721 14.7773C40.3071 14.7773 40.7434 14.7773 41.1784 14.7773C41.1784 13.4839 41.1784 12.1905 41.1784 10.8958C40.7434 10.8958 40.3071 10.8958 39.8721 10.8958C39.8721 12.1892 39.8721 13.4839 39.8721 14.7773Z" fill="white" fill-opacity="0.15"/>
<path fill-rule="evenodd" clip-rule="evenodd" d="M39.8721 19.9102C40.3071 19.9102 40.7434 19.9102 41.1784 19.9102C41.1784 18.6167 41.1784 17.3233 41.1784 16.0299C40.7434 16.0299 40.3071 16.0299 39.8721 16.0299C39.8721 17.3233 39.8721 18.6167 39.8721 19.9102Z" fill="white" fill-opacity="0.15"/>
<path fill-rule="evenodd" clip-rule="evenodd" d="M37.5469 17.1367C37.9819 17.1367 38.4182 17.1367 38.8545 17.1367C38.8545 15.8433 38.8545 14.5499 38.8545 13.2564C38.4182 13.2564 37.9832 13.2564 37.5469 13.2564C37.5469 14.5499 37.5469 15.8446 37.5469 17.1367Z" fill="white" fill-opacity="0.15"/>
<path fill-rule="evenodd" clip-rule="evenodd" d="M37.5469 22.2695C37.9819 22.2695 38.4182 22.2695 38.8545 22.2695C38.8545 20.9761 38.8545 19.6827 38.8545 18.3893C38.4182 18.3893 37.9832 18.3893 37.5469 18.3893C37.5469 19.6827 37.5469 20.9761 37.5469 22.2695Z" fill="white" fill-opacity="0.15"/>
<path fill-rule="evenodd" clip-rule="evenodd" d="M35.2217 19.4961H36.528V15.6145H35.2217V19.4961Z" fill="white" fill-opacity="0.15"/>
<path fill-rule="evenodd" clip-rule="evenodd" d="M35.2217 24.6289H36.528V20.7486H35.2217V24.6289Z" fill="white" fill-opacity="0.15"/>
<path fill-rule="evenodd" clip-rule="evenodd" d="M56.1504 -0.610734H57.458V3.26953H56.1504V-0.610734Z" fill="white" fill-opacity="0.15"/>
<path fill-rule="evenodd" clip-rule="evenodd" d="M53.8262 0.75C54.2625 0.75 54.6975 0.75 55.1338 0.75C55.1338 -0.543424 55.1338 -1.83686 55.1338 -3.13028C54.6975 -3.13028 54.2625 -3.13028 53.8262 -3.13028C53.8262 -1.83686 53.8262 -0.543424 53.8262 0.75Z" fill="white" fill-opacity="0.15"/>
<path fill-rule="evenodd" clip-rule="evenodd" d="M53.8262 5.73047C54.2625 5.73047 54.6975 5.73047 55.1338 5.73047C55.1338 4.43704 55.1338 3.14361 55.1338 1.85019C54.6975 1.85019 54.2625 1.85019 53.8262 1.85019C53.8262 3.14361 53.8262 4.43704 53.8262 5.73047Z" fill="white" fill-opacity="0.15"/>
<path fill-rule="evenodd" clip-rule="evenodd" d="M17.9248 0.800781C17.4898 0.800781 17.0535 0.800781 16.6172 0.800781C16.6172 -0.492643 16.6172 -1.78607 16.6172 -3.0795C17.0522 -3.0795 17.4898 -3.0795 17.9248 -3.0795C17.9248 -1.78607 17.9248 -0.492643 17.9248 0.800781Z" fill="white" fill-opacity="0.15"/>
<path fill-rule="evenodd" clip-rule="evenodd" d="M17.9248 5.73047C17.4898 5.73047 17.0535 5.73047 16.6172 5.73047C16.6172 4.43704 16.6172 3.14361 16.6172 1.85019C17.0522 1.85019 17.4898 1.85019 17.9248 1.85019C17.9248 3.14361 17.9248 4.43704 17.9248 5.73047Z" fill="white" fill-opacity="0.15"/>
<path fill-rule="evenodd" clip-rule="evenodd" d="M20.251 3.19922C19.8147 3.19922 19.3797 3.19922 18.9434 3.19922C18.9434 1.90579 18.9434 0.612361 18.9434 -0.682355C19.3797 -0.682355 19.8147 -0.682355 20.251 -0.682355C20.251 0.61107 20.251 1.9045 20.251 3.19922Z" fill="white" fill-opacity="0.15"/>
<path fill-rule="evenodd" clip-rule="evenodd" d="M20.251 8.08984C19.8147 8.08984 19.3797 8.08984 18.9434 8.08984C18.9434 6.79642 18.9434 5.50299 18.9434 4.20956C19.3797 4.20956 19.8147 4.20956 20.251 4.20956C20.251 5.50299 20.251 6.79642 20.251 8.08984Z" fill="white" fill-opacity="0.15"/>
<path fill-rule="evenodd" clip-rule="evenodd" d="M13.3073 0.804688H12.001V-3.07687H13.3073V0.804688Z" fill="white" fill-opacity="0.15"/>
<path fill-rule="evenodd" clip-rule="evenodd" d="M52.8066 3.19922C52.3716 3.19922 51.9353 3.19922 51.499 3.19922C51.499 1.90579 51.499 0.612361 51.499 -0.682355C51.934 -0.682355 52.3703 -0.682355 52.8066 -0.682355C52.8066 0.61107 52.8066 1.9045 52.8066 3.19922Z" fill="white" fill-opacity="0.15"/>
<path fill-rule="evenodd" clip-rule="evenodd" d="M52.8066 8.08984C52.3716 8.08984 51.9353 8.08984 51.499 8.08984C51.499 6.79642 51.499 5.50299 51.499 4.20956C51.934 4.20956 52.3703 4.20956 52.8066 4.20956C52.8066 5.50299 52.8066 6.79642 52.8066 8.08984Z" fill="white" fill-opacity="0.15"/>
<path fill-rule="evenodd" clip-rule="evenodd" d="M106.821 48.2617H104.859V42.4394H106.821V48.2617Z" fill="white" fill-opacity="0.15"/>
<path fill-rule="evenodd" clip-rule="evenodd" d="M56.875 45.3482L71.0659 59.5391L85.2549 45.3482L71.0659 31.1592L56.875 45.3482Z" fill="white" fill-opacity="0.1"/>
<path fill-rule="evenodd" clip-rule="evenodd" d="M40.6528 44.4141H38.6914V38.5936H40.6528V44.4141Z" fill="white" fill-opacity="0.15"/>
<path fill-rule="evenodd" clip-rule="evenodd" d="M40.6528 52.1133H38.6914V46.2909H40.6528V52.1133Z" fill="white" fill-opacity="0.15"/>
<path fill-rule="evenodd" clip-rule="evenodd" d="M51.1157 55.0469C50.4632 55.0469 49.8088 55.0469 49.1543 55.0469C49.1543 53.1067 49.1543 51.1666 49.1543 49.2265C49.8068 49.2265 50.4613 49.2265 51.1157 49.2265C51.1157 51.1666 51.1157 53.1087 51.1157 55.0469Z" fill="white" fill-opacity="0.15"/>
<path fill-rule="evenodd" clip-rule="evenodd" d="M54.605 58.582C53.9505 58.582 53.298 58.582 52.6436 58.582C52.6436 56.6419 52.6436 54.7018 52.6436 52.7616C53.298 52.7616 53.9505 52.7616 54.605 52.7616C54.605 54.7018 54.605 56.6419 54.605 58.582Z" fill="white" fill-opacity="0.15"/>
<path fill-rule="evenodd" clip-rule="evenodd" d="M101.478 44.4141H103.439V38.5936H101.478V44.4141Z" fill="white" fill-opacity="0.15"/>
<path fill-rule="evenodd" clip-rule="evenodd" d="M101.478 52.1133H103.439V46.2909H101.478V52.1133Z" fill="white" fill-opacity="0.15"/>
<path fill-rule="evenodd" clip-rule="evenodd" d="M91.0117 55.0469C91.6662 55.0469 92.3187 55.0469 92.9732 55.0469C92.9732 53.1067 92.9732 51.1666 92.9732 49.2265C92.3206 49.2265 91.6662 49.2265 91.0117 49.2265C91.0117 51.1666 91.0117 53.1087 91.0117 55.0469Z" fill="white" fill-opacity="0.15"/>
<path fill-rule="evenodd" clip-rule="evenodd" d="M87.5254 58.582C88.1798 58.582 88.8324 58.582 89.4868 58.582C89.4868 56.6419 89.4868 54.7018 89.4868 52.7616C88.8324 52.7616 88.1798 52.7616 87.5254 52.7616C87.5254 54.7018 87.5254 56.6419 87.5254 58.582Z" fill="white" fill-opacity="0.15"/>
<path fill-rule="evenodd" clip-rule="evenodd" d="M101.478 46.1444H103.439V51.9648H101.478V46.1444Z" fill="white" fill-opacity="0.15"/>
<path fill-rule="evenodd" clip-rule="evenodd" d="M101.478 38.4452H103.439V44.2656H101.478V38.4452Z" fill="white" fill-opacity="0.15"/>
<path fill-rule="evenodd" clip-rule="evenodd" d="M97.9912 48.1797C98.6457 48.1797 99.2982 48.1797 99.9527 48.1797C99.9527 46.2395 99.9527 44.2994 99.9527 42.3593C99.2982 42.3593 98.6457 42.3593 97.9912 42.3593C97.9912 44.2994 97.9912 46.2395 97.9912 48.1797Z" fill="white" fill-opacity="0.15"/>
<path fill-rule="evenodd" clip-rule="evenodd" d="M97.9912 55.6523C98.6457 55.6523 99.2982 55.6523 99.9527 55.6523C99.9527 53.7122 99.9527 51.772 99.9527 49.8319C99.2982 49.8319 98.6457 49.8319 97.9912 49.8319C97.9912 51.772 97.9912 53.7122 97.9912 55.6523Z" fill="white" fill-opacity="0.15"/>
<path fill-rule="evenodd" clip-rule="evenodd" d="M97.9912 34.8983C98.6457 34.8983 99.2982 34.8983 99.9527 34.8983C99.9527 36.8385 99.9527 38.7786 99.9527 40.7188C99.2982 40.7188 98.6457 40.7188 97.9912 40.7188C97.9912 38.7786 97.9912 36.8385 97.9912 34.8983Z" fill="white" fill-opacity="0.15"/>
<path fill-rule="evenodd" clip-rule="evenodd" d="M91.0117 35.5194C91.6662 35.5194 92.3187 35.5194 92.9732 35.5194C92.9732 37.4595 92.9732 39.3997 92.9732 41.3398C92.3206 41.3398 91.6662 41.3398 91.0117 41.3398C91.0117 39.3997 91.0117 37.4595 91.0117 35.5194Z" fill="white" fill-opacity="0.15"/>
<path fill-rule="evenodd" clip-rule="evenodd" d="M91.0117 27.8183C91.6662 27.8183 92.3187 27.8183 92.9732 27.8183C92.9732 29.7584 92.9732 31.7005 92.9732 33.6406C92.3206 33.6406 91.6662 33.6406 91.0117 33.6406C91.0117 31.7005 91.0117 29.7603 91.0117 27.8183Z" fill="white" fill-opacity="0.15"/>
<path fill-rule="evenodd" clip-rule="evenodd" d="M87.5254 31.9647C88.1798 31.9647 88.8324 31.9647 89.4868 31.9647C89.4868 33.9049 89.4868 35.845 89.4868 37.7852C88.8324 37.7852 88.1798 37.7852 87.5254 37.7852C87.5254 35.845 87.5254 33.9049 87.5254 31.9647Z" fill="white" fill-opacity="0.15"/>
<path fill-rule="evenodd" clip-rule="evenodd" d="M87.5254 24.2655C88.1798 24.2655 88.8324 24.2655 89.4868 24.2655C89.4868 26.2057 89.4868 28.1458 89.4868 30.0859C88.8324 30.0859 88.1798 30.0859 87.5254 30.0859C87.5254 28.1458 87.5254 26.2057 87.5254 24.2655Z" fill="white" fill-opacity="0.15"/>
<path fill-rule="evenodd" clip-rule="evenodd" d="M84.0371 28.4257C84.6896 28.4257 85.3441 28.4257 85.9986 28.4257C85.9986 30.3658 85.9986 32.306 85.9986 34.2461C85.3441 34.2461 84.6896 34.2461 84.0371 34.2461C84.0371 32.306 84.0371 30.3658 84.0371 28.4257Z" fill="white" fill-opacity="0.15"/>
<path fill-rule="evenodd" clip-rule="evenodd" d="M84.0371 20.7264C84.6896 20.7264 85.3441 20.7264 85.9986 20.7264C85.9986 22.6666 85.9986 24.6067 85.9986 26.5469C85.3441 26.5469 84.6896 26.5469 84.0371 26.5469C84.0371 24.6067 84.0371 22.6666 84.0371 20.7264Z" fill="white" fill-opacity="0.15"/>
<path fill-rule="evenodd" clip-rule="evenodd" d="M80.5488 24.8788C81.2014 24.8788 81.8558 24.8788 82.5103 24.8788C82.5103 26.8189 82.5103 28.7591 82.5103 30.6992C81.8558 30.6992 81.2033 30.6992 80.5488 30.6992C80.5488 28.7591 80.5488 26.8189 80.5488 24.8788Z" fill="white" fill-opacity="0.15"/>
<path fill-rule="evenodd" clip-rule="evenodd" d="M80.5488 17.1796C81.2014 17.1796 81.8558 17.1796 82.5103 17.1796C82.5103 19.1197 82.5103 21.0599 82.5103 23C81.8558 23 81.2033 23 80.5488 23C80.5488 21.0599 80.5488 19.1197 80.5488 17.1796Z" fill="white" fill-opacity="0.15"/>
<path fill-rule="evenodd" clip-rule="evenodd" d="M77.0625 21.3436C77.715 21.3436 78.3695 21.3436 79.022 21.3436C79.022 23.2838 79.022 25.2239 79.022 27.1641C78.3695 27.1641 77.715 27.1641 77.0625 27.1641C77.0625 25.2239 77.0625 23.2838 77.0625 21.3436Z" fill="white" fill-opacity="0.15"/>
<path fill-rule="evenodd" clip-rule="evenodd" d="M77.0625 13.6444C77.715 13.6444 78.3695 13.6444 79.022 13.6444C79.022 15.5846 79.022 17.5247 79.022 19.4648C78.3695 19.4648 77.715 19.4648 77.0625 19.4648C77.0625 17.5247 77.0625 15.5846 77.0625 13.6444Z" fill="white" fill-opacity="0.15"/>
<path fill-rule="evenodd" clip-rule="evenodd" d="M73.5732 17.8007C74.2258 17.8007 74.8802 17.8007 75.5347 17.8007C75.5347 19.7408 75.5347 21.679 75.5347 23.6211C74.8802 23.6211 74.2277 23.6211 73.5732 23.6211C73.5732 21.681 73.5732 19.7408 73.5732 17.8007Z" fill="white" fill-opacity="0.15"/>
<path fill-rule="evenodd" clip-rule="evenodd" d="M73.5732 10.0995C74.2258 10.0995 74.8802 10.0995 75.5347 10.0995C75.5347 12.0396 75.5347 13.9798 75.5347 15.9219C74.8802 15.9219 74.2277 15.9219 73.5732 15.9219C73.5732 13.9817 73.5732 12.0416 73.5732 10.0995Z" fill="white" fill-opacity="0.15"/>
<path fill-rule="evenodd" clip-rule="evenodd" d="M70.0859 14.2577H72.0454V20.0781H70.0859V14.2577Z" fill="white" fill-opacity="0.15"/>
<path fill-rule="evenodd" clip-rule="evenodd" d="M70.0859 6.55849H72.0454V12.3789H70.0859V6.55849Z" fill="white" fill-opacity="0.15"/>
<path fill-rule="evenodd" clip-rule="evenodd" d="M44.1392 48.2539C43.4867 48.2539 42.8322 48.2539 42.1777 48.2539C42.1777 46.3138 42.1777 44.3736 42.1777 42.4335C42.8303 42.4335 43.4867 42.4335 44.1392 42.4335C44.1392 44.3736 44.1392 46.3138 44.1392 48.2539Z" fill="white" fill-opacity="0.15"/>
<path fill-rule="evenodd" clip-rule="evenodd" d="M44.1392 55.6523C43.4867 55.6523 42.8322 55.6523 42.1777 55.6523C42.1777 53.7122 42.1777 51.772 42.1777 49.8319C42.8303 49.8319 43.4867 49.8319 44.1392 49.8319C44.1392 51.772 44.1392 53.7122 44.1392 55.6523Z" fill="white" fill-opacity="0.15"/>
<path fill-rule="evenodd" clip-rule="evenodd" d="M44.1392 34.8983C43.4867 34.8983 42.8322 34.8983 42.1777 34.8983C42.1777 36.8385 42.1777 38.7786 42.1777 40.7188C42.8303 40.7188 43.4867 40.7188 44.1392 40.7188C44.1392 38.7786 44.1392 36.8385 44.1392 34.8983Z" fill="white" fill-opacity="0.15"/>
<path fill-rule="evenodd" clip-rule="evenodd" d="M47.6275 51.8594C46.973 51.8594 46.3205 51.8594 45.666 51.8594C45.666 49.9192 45.666 47.9791 45.666 46.037C46.3205 46.037 46.973 46.037 47.6275 46.037C47.6275 47.9771 47.6275 49.9173 47.6275 51.8594Z" fill="white" fill-opacity="0.15"/>
<path fill-rule="evenodd" clip-rule="evenodd" d="M47.6275 59.1953C46.973 59.1953 46.3205 59.1953 45.666 59.1953C45.666 57.2552 45.666 55.315 45.666 53.3749C46.3205 53.3749 46.973 53.3749 47.6275 53.3749C47.6275 55.315 47.6275 57.2552 47.6275 59.1953Z" fill="white" fill-opacity="0.15"/>
<path fill-rule="evenodd" clip-rule="evenodd" d="M47.6275 38.6933C46.973 38.6933 46.3205 38.6933 45.666 38.6933C45.666 40.6334 45.666 42.5735 45.666 44.5156C46.3205 44.5156 46.973 44.5156 47.6275 44.5156C47.6275 42.5735 47.6275 40.6334 47.6275 38.6933Z" fill="white" fill-opacity="0.15"/>
<path fill-rule="evenodd" clip-rule="evenodd" d="M47.6275 31.3554C46.973 31.3554 46.3205 31.3554 45.666 31.3554C45.666 33.2955 45.666 35.2356 45.666 37.1758C46.3205 37.1758 46.973 37.1758 47.6275 37.1758C47.6275 35.2356 47.6275 33.2955 47.6275 31.3554Z" fill="white" fill-opacity="0.15"/>
<path fill-rule="evenodd" clip-rule="evenodd" d="M51.1157 35.5194C50.4632 35.5194 49.8088 35.5194 49.1543 35.5194C49.1543 37.4595 49.1543 39.3997 49.1543 41.3398C49.8068 41.3398 50.4613 41.3398 51.1157 41.3398C51.1157 39.3997 51.1157 37.4595 51.1157 35.5194Z" fill="white" fill-opacity="0.15"/>
<path fill-rule="evenodd" clip-rule="evenodd" d="M51.1157 27.8183C50.4632 27.8183 49.8088 27.8183 49.1543 27.8183C49.1543 29.7584 49.1543 31.7005 49.1543 33.6406C49.8068 33.6406 50.4613 33.6406 51.1157 33.6406C51.1157 31.7005 51.1157 29.7603 51.1157 27.8183Z" fill="white" fill-opacity="0.15"/>
<path fill-rule="evenodd" clip-rule="evenodd" d="M54.605 31.9647C53.9505 31.9647 53.298 31.9647 52.6436 31.9647C52.6436 33.9049 52.6436 35.845 52.6436 37.7852C53.298 37.7852 53.9505 37.7852 54.605 37.7852C54.605 35.845 54.605 33.9049 54.605 31.9647Z" fill="white" fill-opacity="0.15"/>
<path fill-rule="evenodd" clip-rule="evenodd" d="M54.605 24.2655C53.9505 24.2655 53.298 24.2655 52.6436 24.2655C52.6436 26.2057 52.6436 28.1458 52.6436 30.0859C53.298 30.0859 53.9505 30.0859 54.605 30.0859C54.605 28.1458 54.605 26.2057 54.605 24.2655Z" fill="white" fill-opacity="0.15"/>
<path fill-rule="evenodd" clip-rule="evenodd" d="M58.0923 28.4257C57.4378 28.4257 56.7834 28.4257 56.1309 28.4257C56.1309 30.3658 56.1309 32.306 56.1309 34.2461C56.7834 34.2461 57.4378 34.2461 58.0923 34.2461C58.0923 32.306 58.0923 30.3658 58.0923 28.4257Z" fill="white" fill-opacity="0.15"/>
<path fill-rule="evenodd" clip-rule="evenodd" d="M58.0923 20.7264C57.4378 20.7264 56.7834 20.7264 56.1309 20.7264C56.1309 22.6666 56.1309 24.6067 56.1309 26.5469C56.7834 26.5469 57.4378 26.5469 58.0923 26.5469C58.0923 24.6067 58.0923 22.6666 58.0923 20.7264Z" fill="white" fill-opacity="0.15"/>
<path fill-rule="evenodd" clip-rule="evenodd" d="M61.5796 24.8788C60.9271 24.8788 60.2726 24.8788 59.6201 24.8788C59.6201 26.8189 59.6201 28.7591 59.6201 30.6992C60.2726 30.6992 60.9271 30.6992 61.5796 30.6992C61.5796 28.7591 61.5796 26.8189 61.5796 24.8788Z" fill="white" fill-opacity="0.15"/>
<path fill-rule="evenodd" clip-rule="evenodd" d="M61.5796 17.1796C60.9271 17.1796 60.2726 17.1796 59.6201 17.1796C59.6201 19.1197 59.6201 21.0599 59.6201 23C60.2726 23 60.9271 23 61.5796 23C61.5796 21.0599 61.5796 19.1197 61.5796 17.1796Z" fill="white" fill-opacity="0.15"/>
<path fill-rule="evenodd" clip-rule="evenodd" d="M65.0689 21.3436C64.4144 21.3436 63.7619 21.3436 63.1074 21.3436C63.1074 23.2838 63.1074 25.2239 63.1074 27.1641C63.7599 27.1641 64.4144 27.1641 65.0689 27.1641C65.0689 25.2239 65.0689 23.2838 65.0689 21.3436Z" fill="white" fill-opacity="0.15"/>
<path fill-rule="evenodd" clip-rule="evenodd" d="M65.0689 13.6444C64.4144 13.6444 63.7619 13.6444 63.1074 13.6444C63.1074 15.5846 63.1074 17.5247 63.1074 19.4648C63.7599 19.4648 64.4144 19.4648 65.0689 19.4648C65.0689 17.5247 65.0689 15.5846 65.0689 13.6444Z" fill="white" fill-opacity="0.15"/>
<path fill-rule="evenodd" clip-rule="evenodd" d="M68.5581 17.8007C67.9037 17.8007 67.2492 17.8007 66.5967 17.8007C66.5967 19.7408 66.5967 21.679 66.5967 23.6211C67.2492 23.6211 67.9037 23.6211 68.5581 23.6211C68.5581 21.681 68.5581 19.7408 68.5581 17.8007Z" fill="white" fill-opacity="0.15"/>
<path fill-rule="evenodd" clip-rule="evenodd" d="M68.5581 10.0995C67.9037 10.0995 67.2492 10.0995 66.5967 10.0995C66.5967 12.0396 66.5967 13.9798 66.5967 15.9219C67.2492 15.9219 67.9037 15.9219 68.5581 15.9219C68.5581 13.9817 68.5581 12.0416 68.5581 10.0995Z" fill="white" fill-opacity="0.15"/>
<path fill-rule="evenodd" clip-rule="evenodd" d="M72.0454 14.2577H70.0859V20.0781H72.0454V14.2577Z" fill="white" fill-opacity="0.15"/>
<path fill-rule="evenodd" clip-rule="evenodd" d="M72.0454 6.55849H70.0859V12.3789H72.0454V6.55849Z" fill="white" fill-opacity="0.15"/>
<path fill-rule="evenodd" clip-rule="evenodd" d="M37.2134 48.2617H35.2539V42.4394H37.2134V48.2617Z" fill="white" fill-opacity="0.15"/>
<path fill-rule="evenodd" clip-rule="evenodd" d="M96.4634 51.8594C95.8109 51.8594 95.1564 51.8594 94.502 51.8594C94.502 49.9192 94.502 47.9791 94.502 46.037C95.1545 46.037 95.8089 46.037 96.4634 46.037C96.4634 47.9771 96.4634 49.9173 96.4634 51.8594Z" fill="white" fill-opacity="0.15"/>
<path fill-rule="evenodd" clip-rule="evenodd" d="M96.4634 59.1953C95.8109 59.1953 95.1564 59.1953 94.502 59.1953C94.502 57.2552 94.502 55.315 94.502 53.3749C95.1545 53.3749 95.8089 53.3749 96.4634 53.3749C96.4634 55.315 96.4634 57.2552 96.4634 59.1953Z" fill="white" fill-opacity="0.15"/>
<path fill-rule="evenodd" clip-rule="evenodd" d="M96.4634 38.6933C95.8109 38.6933 95.1564 38.6933 94.502 38.6933C94.502 40.6334 94.502 42.5735 94.502 44.5156C95.1545 44.5156 95.8089 44.5156 96.4634 44.5156C96.4634 42.5735 96.4634 40.6334 96.4634 38.6933Z" fill="white" fill-opacity="0.15"/>
<path fill-rule="evenodd" clip-rule="evenodd" d="M96.4634 31.3554C95.8109 31.3554 95.1564 31.3554 94.502 31.3554C94.502 33.2955 94.502 35.2356 94.502 37.1758C95.1545 37.1758 95.8089 37.1758 96.4634 37.1758C96.4634 35.2356 96.4634 33.2955 96.4634 31.3554Z" fill="white" fill-opacity="0.15"/>
</g>
<defs>
<linearGradient id="paint0_linear_2128_1468" x1="0" y1="28" x2="469.5" y2="28" gradientUnits="userSpaceOnUse">
<stop stop-color="#00AAE1"/>
<stop offset="1" stop-color="#0E153A"/>
</linearGradient>
<clipPath id="clip0_2128_1468">
<rect width="358" height="56" rx="8" fill="white"/>
</clipPath>
</defs>
</svg>
