<svg width="61" height="60" viewBox="0 0 61 60" fill="none" xmlns="http://www.w3.org/2000/svg">
<circle cx="30.5" cy="30" r="30" fill="#FAFAFB"/>
<g clip-path="url(#clip0_2578_5236)">
<path d="M43.0954 27.1763L46.4998 42.7317L39.1025 40.0456L39.0481 40.0609L37.0273 24.6069L37.0604 24.5938L43.0954 27.1763Z" fill="#FFAB00"/>
<path d="M37.0276 24.6094L39.0484 40.0634L30.5002 42.4586L30.4526 42.4447L30.5002 42.2868L30.519 27.3818L30.7686 27.1349L30.7722 27.1384L37.0276 24.6094Z" fill="#FBC962"/>
<path d="M20.4822 25.9731C19.437 24.6692 18.8678 23.0474 18.8692 21.376C18.8645 19.4311 19.6421 17.5657 21.0271 16.2001C23.8978 13.3291 28.5353 13.3291 31.37 16.2001C32.7479 17.5682 33.523 19.4297 33.523 21.3716C33.523 23.3134 32.7479 25.1747 31.37 26.5431L30.7686 27.1352L30.5189 27.3821L26.1436 31.6959L23.3595 28.9118L20.9905 26.5431C20.8116 26.3617 20.642 26.1716 20.4822 25.9731Z" fill="#C91022"/>
<path d="M30.5189 27.3828L30.5001 42.2879L30.4526 42.4457L21.8975 39.8771L23.3524 28.9188L23.3595 28.9125L26.1436 31.6967L30.5189 27.3828Z" fill="#FFAB00"/>
<path d="M29.6124 21.1303C29.6124 23.0058 28.0922 24.526 26.2165 24.526C24.341 24.526 22.8208 23.0058 22.8208 21.1303C22.8208 19.2545 24.341 17.7344 26.2165 17.7344C28.0922 17.7344 29.6124 19.2545 29.6124 21.1303Z" fill="white"/>
<path d="M23.3594 28.9153L23.3523 28.9216L21.8974 39.8798L14.5 42.6353L17.9044 27.08L20.4821 25.9766C20.6418 26.1751 20.8115 26.3652 20.9903 26.5466L23.3594 28.9153Z" fill="#FBC962"/>
</g>
<defs>
<clipPath id="clip0_2578_5236">
<rect width="32" height="32" fill="white" transform="translate(14.5 14)"/>
</clipPath>
</defs>
</svg>
