<svg width="61" height="60" viewBox="0 0 61 60" fill="none" xmlns="http://www.w3.org/2000/svg">
<circle cx="30.5" cy="30" r="30" fill="#FAFAFB"/>
<g clip-path="url(#clip0_2578_5248)">
<path d="M44.5773 26.5858V42.1119C44.5773 43.1459 43.7403 43.9837 42.7056 43.9837H18.2931C17.2591 43.9837 16.4214 43.1459 16.4214 42.1119V26.5858C17.0043 26.9307 17.6845 27.1284 18.4105 27.1284C19.3994 27.1284 20.3096 26.7594 21.0034 26.1451C21.6973 25.5317 22.1733 24.6714 22.2931 23.6904L22.4265 22.5938C22.4072 22.7586 22.3968 22.9234 22.3968 23.085C22.3968 25.2856 24.1857 27.1284 26.4482 27.1284C28.6858 27.1284 30.4996 25.3146 30.4996 23.0778C30.4996 25.3146 32.3127 27.1284 34.5503 27.1284C36.8144 27.1284 38.6025 25.2856 38.6025 23.0834C38.6025 22.9234 38.5929 22.7618 38.5728 22.5978L38.7062 23.6905C38.826 24.6714 39.3019 25.5317 39.9951 26.1452C40.6889 26.7594 41.5999 27.1285 42.588 27.1285C43.3143 27.1285 43.9944 26.9307 44.5773 26.5858Z" fill="#FFAB00"/>
<path d="M44.5776 29.6483V31.5241C43.9947 31.869 43.3145 32.0667 42.5885 32.0667C41.6004 32.0667 40.6894 31.6977 39.9956 31.0834C39.3025 30.47 38.8265 29.6097 38.7067 28.6288L38.5732 27.5361C38.5934 27.7001 38.603 27.8617 38.603 28.0217C38.603 30.2239 36.8149 32.0667 34.5508 32.0667C32.3132 32.0667 30.5001 30.2528 30.5001 28.0161C30.5001 30.2529 28.6862 32.0667 26.4487 32.0667C24.1862 32.0667 22.3973 30.2239 22.3973 28.0233C22.3973 27.8616 22.4077 27.6968 22.427 27.532L22.2936 28.6287C22.1737 29.6096 21.6978 30.4699 21.0039 31.0834C20.3101 31.6976 19.3999 32.0667 18.411 32.0667C17.685 32.0667 17.0048 31.8689 16.4219 31.524V29.6483C17.0048 29.9932 17.685 30.1909 18.411 30.1909C19.3999 30.1909 20.3101 29.8219 21.0039 29.2076C21.6978 28.5942 22.1738 27.7339 22.2936 26.7529L22.427 25.6562C22.4077 25.8211 22.3973 25.9859 22.3973 26.1475C22.3973 28.3481 24.1862 30.1909 26.4487 30.1909C28.6862 30.1909 30.5001 28.3771 30.5001 26.1403C30.5001 28.3771 32.3132 30.1909 34.5508 30.1909C36.8149 30.1909 38.603 28.3481 38.603 26.1459C38.603 25.9859 38.5934 25.8243 38.5732 25.6603L38.7067 26.753C38.8265 27.7339 39.3024 28.5942 39.9956 29.2077C40.6894 29.8219 41.6004 30.191 42.5885 30.191C43.3146 30.1911 43.9948 29.9932 44.5776 29.6483Z" fill="#FDBA31"/>
<path d="M38.5731 25.7784C38.5932 25.9424 38.6028 26.104 38.6028 26.264C38.6028 28.4662 36.8147 30.309 34.5506 30.309C32.313 30.309 30.4999 28.4951 30.4999 26.2584L28.5703 21.5489L30.4999 16.0078H37.3823L39.4513 21.5553L38.5722 25.7679C38.5731 25.7711 38.5731 25.7752 38.5731 25.7784Z" fill="#BB1B2E"/>
<path d="M23.6168 16.0078L25.4079 22.0963L22.4277 25.7678L22.2934 26.8709C22.1736 27.8518 21.6977 28.7121 21.0038 29.3256C20.3099 29.9399 19.3998 30.3089 18.4109 30.3089C17.6849 30.3089 17.0046 30.1111 16.4217 29.7662V29.7654C15.2711 29.0852 14.5 27.8317 14.5 26.3981V26.1079L17.1638 16.985C17.3329 16.4059 17.8639 16.0078 18.4672 16.0078H23.6168Z" fill="#BB1B2E"/>
<path d="M44.5774 29.7663C43.9945 30.1112 43.3143 30.3089 42.5883 30.3089C41.6002 30.3089 40.6893 29.9399 39.9954 29.3256C39.3023 28.7122 38.8263 27.8519 38.7065 26.8709L38.5731 25.7782C38.5731 25.7751 38.5731 25.771 38.5723 25.7678L37.3823 16.0078H42.532C43.1353 16.0078 43.6663 16.4059 43.8354 16.9849L46.4999 26.1079V26.3982C46.4999 27.8317 45.728 29.0853 44.5774 29.7663Z" fill="#C91022"/>
<path d="M30.4998 16.0079V26.2583C30.4998 28.4951 28.686 30.3089 26.4484 30.3089C24.1859 30.3089 22.397 28.4661 22.397 26.2655C22.397 26.1039 22.4074 25.9391 22.4267 25.7743C22.4267 25.7718 22.4275 25.7703 22.4275 25.7678L23.6167 16.0078L30.4998 16.0079Z" fill="#C91022"/>
<rect x="34.5" y="34" width="7" height="10" fill="white"/>
<rect x="35.5" y="39" width="1" height="2" rx="0.5" fill="#FFAB00"/>
</g>
<defs>
<clipPath id="clip0_2578_5248">
<rect width="32" height="32" fill="white" transform="translate(14.5 14)"/>
</clipPath>
</defs>
</svg>
