<svg width="24" height="24" viewBox="0 0 24 24" fill="none" xmlns="http://www.w3.org/2000/svg">
<path d="M20.1902 14.0569L19.0602 12.1769C18.8102 11.7669 18.5902 10.9769 18.5902 10.4969V8.62687C18.5902 4.99687 15.6402 2.04688 12.0202 2.04688C8.3902 2.05687 5.4402 4.99687 5.4402 8.62687V10.4869C5.4402 10.9669 5.2202 11.7569 4.9802 12.1669L3.8502 14.0469C3.4202 14.7769 3.3202 15.6069 3.5902 16.3269C3.8602 17.0569 4.4702 17.6369 5.2702 17.8969C6.3502 18.2569 7.4402 18.5169 8.5502 18.7069C8.6602 18.7269 8.7702 18.7369 8.8802 18.7569C9.0202 18.7769 9.1702 18.7969 9.3202 18.8169C9.5802 18.8569 9.8402 18.8869 10.1102 18.9069C10.7402 18.9669 11.3802 18.9969 12.0202 18.9969C12.6502 18.9969 13.2802 18.9669 13.9002 18.9069C14.1302 18.8869 14.3602 18.8669 14.5802 18.8369C14.7602 18.8169 14.9402 18.7969 15.1202 18.7669C15.2302 18.7569 15.3402 18.7369 15.4502 18.7169C16.5702 18.5369 17.6802 18.2569 18.7602 17.8969C19.5302 17.6369 20.1202 17.0569 20.4002 16.3169C20.6802 15.5669 20.6002 14.7469 20.1902 14.0569ZM12.7502 9.99687C12.7502 10.4169 12.4102 10.7569 11.9902 10.7569C11.5702 10.7569 11.2302 10.4169 11.2302 9.99687V6.89688C11.2302 6.47688 11.5702 6.13688 11.9902 6.13688C12.4102 6.13688 12.7502 6.47688 12.7502 6.89688V9.99687Z" fill="white"/>
<path d="M14.8297 20.01C14.4097 21.17 13.2997 22 11.9997 22C11.2097 22 10.4297 21.68 9.87969 21.11C9.55969 20.81 9.31969 20.41 9.17969 20C9.30969 20.02 9.43969 20.03 9.57969 20.05C9.80969 20.08 10.0497 20.11 10.2897 20.13C10.8597 20.18 11.4397 20.21 12.0197 20.21C12.5897 20.21 13.1597 20.18 13.7197 20.13C13.9297 20.11 14.1397 20.1 14.3397 20.07C14.4997 20.05 14.6597 20.03 14.8297 20.01Z" fill="white"/>
</svg>
