<svg width="32" height="32" viewBox="0 0 32 32" fill="none" xmlns="http://www.w3.org/2000/svg">
<rect width="32" height="32" rx="6" fill="#C91022" fill-opacity="0.07"/>
<path d="M16.1187 16.7805C16.0487 16.7705 15.9587 16.7705 15.8787 16.7805C14.1187 16.7205 12.7188 15.2805 12.7188 13.5105C12.7188 11.7005 14.1787 10.2305 15.9987 10.2305C17.8087 10.2305 19.2787 11.7005 19.2787 13.5105C19.2687 15.2805 17.8787 16.7205 16.1187 16.7805Z" stroke="#C91022" stroke-width="1.5" stroke-linecap="round" stroke-linejoin="round"/>
<path d="M22.7417 23.3786C20.9617 25.0086 18.6017 25.9986 16.0017 25.9986C13.4017 25.9986 11.0417 25.0086 9.26172 23.3786C9.36172 22.4386 9.96172 21.5186 11.0317 20.7986C13.7717 18.9786 18.2517 18.9786 20.9717 20.7986C22.0417 21.5186 22.6417 22.4386 22.7417 23.3786Z" stroke="#C91022" stroke-width="1.5" stroke-linecap="round" stroke-linejoin="round"/>
<path d="M16 26C21.5228 26 26 21.5228 26 16C26 10.4772 21.5228 6 16 6C10.4772 6 6 10.4772 6 16C6 21.5228 10.4772 26 16 26Z" stroke="#C91022" stroke-width="1.5" stroke-linecap="round" stroke-linejoin="round"/>
</svg>
