<svg width="61" height="60" viewBox="0 0 61 60" fill="none" xmlns="http://www.w3.org/2000/svg">
<circle cx="30.5" cy="30" r="30" fill="#FAFAFB"/>
<path d="M32 26C31.8674 26 31.7402 25.9473 31.6464 25.8536C31.5527 25.7598 31.5 25.6326 31.5 25.5V20.5C31.5 19.5717 31.1313 18.6815 30.4749 18.0251C29.8185 17.3687 28.9283 17 28 17C27.0717 17 26.1815 17.3687 25.5251 18.0251C24.8687 18.6815 24.5 19.5717 24.5 20.5V25.5C24.5 25.6326 24.4473 25.7598 24.3536 25.8536C24.2598 25.9473 24.1326 26 24 26C23.8674 26 23.7402 25.9473 23.6464 25.8536C23.5527 25.7598 23.5 25.6326 23.5 25.5V20.5C23.5 19.3065 23.9741 18.1619 24.818 17.318C25.6619 16.4741 26.8065 16 28 16C29.1935 16 30.3381 16.4741 31.182 17.318C32.0259 18.1619 32.5 19.3065 32.5 20.5V25.5C32.5 25.6326 32.4473 25.7598 32.3536 25.8536C32.2598 25.9473 32.1326 26 32 26Z" fill="#DADCDE"/>
<path d="M33 43.5H16L17 23.5H32L33 43.5Z" fill="#FFAB00"/>
<path d="M37 43.5H33L32 23.5H36L37 43.5Z" fill="#EFA40A"/>
<path d="M35.0294 40.9994C35.0194 41 35.0094 41 34.9994 41C34.8719 40.9999 34.7493 40.9511 34.6566 40.8637C34.5639 40.7762 34.5081 40.6566 34.5006 40.5294L33.5006 23.5294C33.5 23.5194 33.5 23.51 33.5 23.5H34.5012L35.4994 40.4706C35.5071 40.6031 35.462 40.7331 35.3738 40.8323C35.2857 40.9314 35.1618 40.9915 35.0294 40.9994Z" fill="#DF9807"/>
<path d="M45 43.5H41L40.9375 42.6919V42.6912L40 30.5H44L44.9219 42.4806V42.4813L45 43.5Z" fill="#BC162A"/>
<path d="M43.05 40.9975C43.0332 40.9993 43.0163 41.0001 42.9994 41C42.8755 40.9998 42.7562 40.9537 42.6644 40.8706C42.5726 40.7875 42.5149 40.6732 42.5025 40.55L42.4844 40.3713L41.5025 30.55C41.5007 30.5334 41.4999 30.5167 41.5 30.5H42.5025L43.485 40.3256L43.4975 40.45C43.5041 40.5153 43.4977 40.5813 43.4788 40.6442C43.4598 40.7071 43.4287 40.7656 43.3872 40.8164C43.3456 40.8673 43.2944 40.9094 43.2366 40.9405C43.1787 40.9716 43.1153 40.9909 43.05 40.9975Z" fill="#B01023"/>
<path d="M45 43.5H44.3988L43 41.4012L41.6012 43.5H41L40.9375 42.6919V42.6912L42.4844 40.3712L42.5837 40.2225C42.6295 40.154 42.6914 40.0979 42.764 40.0591C42.8366 40.0203 42.9177 40 43 40C43.0823 40 43.1634 40.0203 43.236 40.0591C43.3086 40.0979 43.3705 40.154 43.4163 40.2225L43.485 40.3256L44.9219 42.4806V42.4812L45 43.5Z" fill="#B01023"/>
<path d="M41 43.5H28L29 30.5H40L41 43.5Z" fill="#C91022"/>
<path d="M35 40H34C33.3372 39.9993 32.7017 39.7356 32.2331 39.2669C31.7644 38.7983 31.5007 38.1628 31.5 37.5V33.5C31.5 33.3674 31.5527 33.2402 31.6464 33.1464C31.7402 33.0527 31.8674 33 32 33C32.1326 33 32.2598 33.0527 32.3536 33.1464C32.4473 33.2402 32.5 33.3674 32.5 33.5V37.5C32.5004 37.8977 32.6586 38.279 32.9398 38.5602C33.221 38.8414 33.6023 38.9996 34 39H35C35.3977 38.9996 35.779 38.8414 36.0602 38.5602C36.3414 38.279 36.4996 37.8977 36.5 37.5V33.5C36.5 33.3674 36.5527 33.2402 36.6464 33.1464C36.7402 33.0527 36.8674 33 37 33C37.1326 33 37.2598 33.0527 37.3536 33.1464C37.4473 33.2402 37.5 33.3674 37.5 33.5V37.5C37.4993 38.1628 37.2356 38.7983 36.7669 39.2669C36.2983 39.7356 35.6628 39.9993 35 40Z" fill="#E9EEF2"/>
<path d="M20.5 25.5H21.5V28.5H20.5V25.5Z" fill="#DADCDE"/>
<path d="M21 26C20.8674 26 20.7402 25.9473 20.6464 25.8536C20.5527 25.7598 20.5 25.6326 20.5 25.5V20.5C20.5 19.3065 20.9741 18.1619 21.818 17.318C22.6619 16.4741 23.8065 16 25 16C26.1935 16 27.3381 16.4741 28.182 17.318C29.0259 18.1619 29.5 19.3065 29.5 20.5V25.5C29.5 25.6326 29.4473 25.7598 29.3536 25.8536C29.2598 25.9473 29.1326 26 29 26C28.8674 26 28.7402 25.9473 28.6464 25.8536C28.5527 25.7598 28.5 25.6326 28.5 25.5V20.5C28.5 19.5717 28.1313 18.6815 27.4749 18.0251C26.8185 17.3687 25.9283 17 25 17C24.0717 17 23.1815 17.3687 22.5251 18.0251C21.8687 18.6815 21.5 19.5717 21.5 20.5V25.5C21.5 25.6326 21.4473 25.7598 21.3536 25.8536C21.2598 25.9473 21.1326 26 21 26Z" fill="#E9EEF2"/>
<path d="M22.5 32.5H19.5V28.5L21 27.5L22.5 28.5V32.5Z" fill="#C91022"/>
</svg>
